<?xml version="1.0" encoding="UTF-8"?>
<svg version="1.1" xmlns="http://www.w3.org/2000/svg" width="1024" height="1024">
<path d="M0 0 C337.92 0 675.84 0 1024 0 C1024 337.92 1024 675.84 1024 1024 C686.08 1024 348.16 1024 0 1024 C0 686.08 0 348.16 0 0 Z " fill="#276EC7" transform="translate(0,0)"/>
<path d="M0 0 C0.59635254 0.1868335 1.19270508 0.37366699 1.80712891 0.56616211 C9.0782205 2.85942988 16.01296027 5.90530155 23 8.9375 C24.23163015 9.46842544 25.46340029 9.99902624 26.6953125 10.52929688 C31.66530454 12.67347811 36.63027054 14.82667523 41.5703125 17.0390625 C48.40633858 20.09159285 55.32753182 22.9487197 62.23046875 25.84570312 C67.4177489 28.03094394 72.58121404 30.24567464 77.6953125 32.59765625 C81.92949246 34.54267506 86.20877065 36.30281261 90.54394531 38.00830078 C94.71137335 39.69101377 98.78793722 41.56989383 102.875 43.4375 C109.17555186 46.29585847 115.49027469 49.07579994 121.89453125 51.6953125 C125.89726114 53.37696254 129.85198457 55.15918259 133.8125 56.9375 C140.6352872 59.99668271 147.50550929 62.86468861 154.47265625 65.578125 C157.86753196 66.94660203 161.20392617 68.40519077 164.54321289 69.90234375 C169.07621481 71.92762216 173.63369049 73.89706356 178.1875 75.875 C179.1983667 76.31408691 180.2092334 76.75317383 181.25073242 77.20556641 C196.29329249 83.80209144 196.29329249 83.80209144 211.5234375 89.9453125 C213.66219097 90.85613811 215.70271253 91.84585275 217.7734375 92.8984375 C221.85884413 94.96249311 226.02058971 96.75433666 230.25 98.5 C231.92092363 99.19707658 233.59147245 99.89505203 235.26171875 100.59375 C236.62562744 101.16416016 236.62562744 101.16416016 238.01708984 101.74609375 C247.28396784 105.64155008 256.51498938 109.62147995 265.74511719 113.60302734 C268.64991552 114.84974622 271.561388 116.07858753 274.4765625 117.30078125 C288.34276091 123.17329501 299.66954963 130.38455513 306.375 144.5625 C311.48969218 157.57554425 311.70993329 170.83933364 306.4921875 183.8984375 C303.41632712 190.29171799 299.18621526 195.19326391 294 200 C293.56945312 200.45890625 293.13890625 200.9178125 292.6953125 201.390625 C285.47548554 208.49822667 274.48661433 211.98085909 265 215 C265.24234375 215.76957031 265.4846875 216.53914062 265.734375 217.33203125 C268.45845691 226.66725042 270.00446466 235.99040143 271.35620117 245.61303711 C272.76021021 255.56412863 274.381535 265.46746691 276.0625 275.375 C277.68243133 284.92322296 279.25309899 294.45695692 280.5 304.0625 C281.69957436 313.29449982 283.76266283 322.30023323 286.01953125 331.32836914 C289.61970123 346.38248902 288.80742389 360.50336975 280.6875 374 C276.370785 380.28558072 271.51760856 384.17396357 265 388 C265.67804687 388.29132813 266.35609375 388.58265625 267.0546875 388.8828125 C285.81896031 397.14740911 300.71581727 408.18290511 309 427.375 C316.46470027 447.21953768 316.11060712 469.63662208 308.3125 489.3125 C305.39081203 495.71135735 301.75848813 500.84721154 297 506 C296.32582031 506.73089844 295.65164063 507.46179688 294.95703125 508.21484375 C284.58859973 518.98437513 271.68379903 525.03725117 257 528 C256.01 528 255.02 528 254 528 C254.00222061 528.78529083 254.00444122 529.57058167 254.00672913 530.37966919 C254.02711941 537.93442123 254.04216529 545.48915918 254.05181217 553.04393196 C254.05693902 556.92399432 254.06384006 560.80403319 254.07543945 564.68408203 C254.12185451 580.6615693 254.07999767 596.62349986 253.5546875 612.59375 C253.51517471 613.79911407 253.47566193 615.00447815 253.43495178 616.24636841 C252.47561406 642.25684946 248.26749844 664.12882669 229 683 C221.50693768 689.51017606 213.29748975 693.62903847 204 697 C203.27748047 697.27070312 202.55496094 697.54140625 201.81054688 697.8203125 C194.72885011 700.24405624 188.06386379 700.4500558 180.625 700.375 C179.48289062 700.38660156 178.34078125 700.39820313 177.1640625 700.41015625 C158.5964843 700.34685769 140.47209389 693.24431449 126.67578125 680.69921875 C117.70383102 671.6017867 107.63722935 657.19566961 106.8125 644 C106.9053125 643.01 106.9053125 643.01 107 642 C106.34 642 105.68 642 105 642 C104.87625 643.19625 104.7525 644.3925 104.625 645.625 C103.00355633 661.2989555 92.01563082 674.3297787 80.4609375 684.16015625 C61.39658929 698.28764556 39.13631081 701.16710496 16.13671875 698.5625 C-3.51828354 694.64618572 -19.19076998 683.03053179 -33 669 C-34.06586658 670.03822162 -35.12748427 671.0808054 -36.1875 672.125 C-37.07501953 672.99511719 -37.07501953 672.99511719 -37.98046875 673.8828125 C-40.1317504 676.07305588 -40.1317504 676.07305588 -42.34375 678.9609375 C-50.73178566 689.10926804 -66.33335897 695.38471285 -79 698 C-94.4109612 699.03843904 -109.76246748 699.53812946 -124 693 C-124.95302002 692.57388428 -124.95302002 692.57388428 -125.92529297 692.13916016 C-135.3701403 687.83544484 -142.71843365 682.38753509 -150 675 C-153.45967937 676.62662729 -156.59515892 678.62759232 -159.8125 680.6875 C-197.07337173 703.90188839 -243.01285367 706.83534716 -285.125 697.3125 C-316.27304493 688.88800287 -343.6249772 673.41136435 -360 645 C-360.41765625 644.28328125 -360.8353125 643.5665625 -361.265625 642.828125 C-371.19296633 624.39163395 -373.10439222 602.58060972 -367.2578125 582.546875 C-363.7149626 572.55647839 -358.59330165 562.36331479 -350.19921875 555.53515625 C-348.74131901 554.01729489 -348.74131901 554.01729489 -349.13671875 551.66796875 C-350.10057992 548.68915797 -351.35187695 546.08213712 -352.8125 543.3125 C-366.52023244 516.3889394 -367.62379243 484.99194764 -358.546875 456.34765625 C-356.11828047 449.19804057 -352.6745776 442.57738444 -349 436 C-348.18402344 434.52080078 -348.18402344 434.52080078 -347.3515625 433.01171875 C-334.47663051 411.312748 -313.22132115 396.75197521 -290 388 C-290.2165625 387.21238281 -290.433125 386.42476562 -290.65625 385.61328125 C-290.9346875 384.52402344 -291.213125 383.43476562 -291.5 382.3125 C-291.7784375 381.25675781 -292.056875 380.20101563 -292.34375 379.11328125 C-294.37507765 368.68552954 -292.70654428 357.85954179 -291.40472412 347.43209839 C-290.92424798 343.57659971 -290.46971832 339.71805683 -290.015625 335.859375 C-289.9255014 335.09628525 -289.83537781 334.3331955 -289.74252319 333.54698181 C-288.98142888 327.02084662 -288.38657655 320.48795111 -287.875 313.9375 C-287.79749512 312.98415771 -287.71999023 312.03081543 -287.64013672 311.04858398 C-287.35345186 307.51455839 -287.06784071 303.98106666 -286.82324219 300.44384766 C-285.28467732 278.55582844 -285.28467732 278.55582844 -277.42533875 271.60795593 C-275.63999565 269.59387119 -275.63427108 268.64535575 -275.65942383 265.98754883 C-275.65965042 265.18694534 -275.65987701 264.38634186 -275.66011047 263.56147766 C-275.67559433 262.70201035 -275.69107819 261.84254303 -275.70703125 260.95703125 C-275.71127609 260.0734343 -275.71552094 259.18983734 -275.71989441 258.27946472 C-275.73668957 255.45683339 -275.77434303 252.63491559 -275.8125 249.8125 C-275.82754577 247.89909885 -275.84123436 245.98568651 -275.85351562 244.07226562 C-275.88659581 239.38123541 -275.9383837 234.69073869 -276 230 C-276.99628418 229.5875 -277.99256836 229.175 -279.01904297 228.75 C-287.77993756 225.12042382 -296.53486335 221.47691902 -305.28103638 217.81199646 C-309.53158945 216.03093314 -313.78683857 214.26219752 -318.046875 212.50390625 C-333.11606304 206.1876624 -343.11843022 198.14290635 -349.9375 183 C-354.05040323 171.41281747 -353.49356422 158.96594696 -348.484375 147.765625 C-346.3476295 143.78453076 -343.99772871 140.37338393 -341 137 C-340.33677734 136.14728516 -340.33677734 136.14728516 -339.66015625 135.27734375 C-329.34951342 123.27105143 -309.71140481 117.65553691 -295.60986328 111.56591797 C-289.76485751 109.0304204 -283.94004889 106.44944141 -278.11340332 103.87210083 C-268.01704577 99.40723411 -257.91363716 94.95862166 -247.80078125 90.53125 C-230.77280433 83.07488935 -213.76375967 75.58575976 -196.83520508 67.90600586 C-188.7396888 64.23353326 -180.62774144 60.60060377 -172.5 57 C-162.20603028 52.43783065 -151.93715597 47.82255625 -141.67840576 43.1819458 C-131.83488888 38.72921345 -121.98423071 34.29283655 -112.125 29.875 C-110.93729004 29.34269775 -109.74958008 28.81039551 -108.52587891 28.26196289 C-92.123586 20.91527464 -92.123586 20.91527464 -84.28320312 17.51538086 C-78.93006486 15.19290237 -73.60613247 12.83419142 -68.34155273 10.31665039 C-60.0650582 6.36548284 -51.67451686 2.97876229 -43 0 C-42.01902344 -0.34289062 -41.03804688 -0.68578125 -40.02734375 -1.0390625 C-27.38541752 -4.84408671 -12.36872567 -4.54705043 0 0 Z " fill="#FBFBFB" transform="translate(544,157)"/>
<path d="M0 0 C7.87251544 0.06009554 13.61606763 2.96024644 20.3984375 6.49902344 C23.76515203 8.20400486 27.22396939 9.69175459 30.6875 11.1875 C31.36441895 11.48197021 32.04133789 11.77644043 32.73876953 12.07983398 C38.91787552 14.75805371 45.13535939 17.29799866 51.44921875 19.640625 C56.73300415 21.61657315 61.85856125 23.66317546 66.875 26.25 C77.67184761 31.80635642 89.0204916 36.27650145 100.2265625 40.93359375 C106.58591199 43.58026826 112.92015614 46.28362995 119.25 49 C120.45760986 49.51771973 121.66521973 50.03543945 122.90942383 50.56884766 C132.25929396 54.58005808 141.59262776 58.62884842 150.9236145 62.68377686 C160.98746136 67.05514302 171.08105515 71.35315859 181.1875 75.625 C191.89557079 80.15142049 202.56642358 84.75008437 213.1965332 89.45751953 C220.89793702 92.86384963 228.63023701 96.19354524 236.375 99.5 C251.78163249 106.07962639 267.12008978 112.81191655 282.42114258 119.63330078 C284.07842522 120.36844428 285.74171864 121.09001385 287.40625 121.80859375 C288.2209375 122.18113281 289.035625 122.55367188 289.875 122.9375 C291.12796875 123.49244141 291.12796875 123.49244141 292.40625 124.05859375 C294.375 125.5 294.375 125.5 295.15625 128.16015625 C295.2284375 128.93230469 295.300625 129.70445312 295.375 130.5 C292.01900982 133.35036599 288.83675589 135.4151898 284.83203125 137.234375 C283.76605713 137.72260742 282.70008301 138.21083984 281.60180664 138.71386719 C280.47508545 139.22079102 279.34836426 139.72771484 278.1875 140.25 C277.03306396 140.7749707 275.87862793 141.29994141 274.68920898 141.84082031 C272.35619468 142.89988282 270.02165136 143.95558392 267.68554688 145.0078125 C264.70783498 146.34997881 261.73587638 147.70392908 258.765625 149.0625 C257.15659742 149.79243299 255.54724761 150.52165629 253.9375 151.25 C253.20571533 151.58483398 252.47393066 151.91966797 251.7199707 152.26464844 C248.76275795 153.58719057 246.65319682 154.5 243.375 154.5 C243.6695105 155.66849487 243.6695105 155.66849487 243.9699707 156.8605957 C247.43727412 170.69618579 250.84279055 184.43091317 252.76953125 198.58203125 C253.19067096 201.30721272 253.66712742 203.79513402 254.359375 206.44140625 C255.49673984 210.79696643 256.17517435 215.1722301 256.8125 219.625 C256.93810303 220.47884277 257.06370605 221.33268555 257.19311523 222.21240234 C257.87943995 226.91899456 258.53164199 231.62962789 259.1640625 236.34375 C259.29369385 237.30909668 259.4233252 238.27444336 259.55688477 239.26904297 C259.80310401 241.11655596 260.04600415 242.96451563 260.28491211 244.81298828 C260.84396699 249.04022085 261.49392226 253.20305191 262.37890625 257.375 C263.57792678 263.16771477 264.14605901 268.99558609 264.75 274.875 C265.73334867 283.97518586 267.03333167 292.89237527 269.01708984 301.82958984 C271.48669193 313.06689367 271.48669193 313.06689367 271.375 318.5 C270.715 319.16 270.055 319.82 269.375 320.5 C264.74279544 320.34297612 261.61147466 319.85329979 257.6875 317.375 C254.62865388 315.28448828 254.62865388 315.28448828 251.75 315.5 C249.24202738 316.38682433 249.24202738 316.38682433 247.3125 318.5 C242.68924373 321.64774895 237.85090746 321.34393324 232.375 321.5 C231.40691406 321.53996094 230.43882812 321.57992188 229.44140625 321.62109375 C224.45263292 321.74418395 224.45263292 321.74418395 222.375 321.5 C220.375 319.5 220.375 319.5 220.3347168 317.64575195 C221.06644236 312.26694795 222.03922458 306.99175584 223.1875 301.6875 C224.90978848 293.37185231 226.28502408 285.02920992 227.5 276.625 C227.65831299 275.5527417 227.81662598 274.4804834 227.97973633 273.37573242 C228.4896838 269.75529256 228.94692024 266.13082399 229.375 262.5 C229.51000412 261.38047943 229.51000412 261.38047943 229.6477356 260.23834229 C231.5550746 243.8983854 231.65273643 227.60854918 231.57061768 211.17840576 C231.55967895 208.41140046 231.560153 205.64444364 231.56075573 202.87742043 C231.56041771 199.53544853 231.55158844 196.19352371 231.54296875 192.8515625 C231.54129951 191.01556992 231.54129951 191.01556992 231.53959656 189.14248657 C231.50637857 183.15658895 231.20788326 177.42373283 230.375 171.5 C230.31472169 169.66753945 230.28703785 167.83327489 230.3125 166 C230.32152344 165.1440625 230.33054687 164.288125 230.33984375 163.40625 C230.35724609 162.46265625 230.35724609 162.46265625 230.375 161.5 C220.41380862 165.68412516 210.45880484 169.87981996 200.53515625 174.15234375 C197.658743 175.37899711 194.77000498 176.56811319 191.875 177.75 C184.7839644 180.68289091 177.82351666 183.90720772 170.8515625 187.11035156 C169.92988281 187.5328418 169.00820313 187.95533203 168.05859375 188.390625 C167.22900146 188.77250977 166.39940918 189.15439453 165.54467773 189.54785156 C163.375 190.5 163.375 190.5 160.375 191.5 C160.40529297 192.54824951 160.43558594 193.59649902 160.46679688 194.67651367 C160.79835615 206.3320332 161.07428526 217.98824873 161.3145752 229.64599609 C161.37336886 232.42295754 161.43772679 235.19974513 161.50292969 237.9765625 C161.60008668 242.24371632 161.66907962 246.51049188 161.71704102 250.7784729 C161.738901 252.3762554 161.76957173 253.97394318 161.80932617 255.57138062 C161.86303386 257.8019207 161.88464911 260.03062299 161.8984375 262.26171875 C161.91825684 263.51944092 161.93807617 264.77716309 161.95849609 266.07299805 C161.17664247 270.66499779 159.64168043 272.21833755 156.375 275.5 C154.10035019 276.97737934 152.04914997 278.16334737 149.625 279.3125 C148.59886597 279.80943359 148.59886597 279.80943359 147.55200195 280.31640625 C137.1484427 285.18813958 126.26293605 288.88023044 115.375 292.5 C114.29250977 292.86158203 113.21001953 293.22316406 112.09472656 293.59570312 C95.52733145 299.04075812 79.00453134 302.47918323 61.76123047 305.00048828 C58.70168069 305.45181048 55.64959836 305.93381335 52.59765625 306.43359375 C50.89853704 306.70634999 49.19932584 306.97853409 47.5 307.25 C46.44341187 307.42366089 46.44341187 307.42366089 45.36547852 307.60083008 C31.12711706 309.76965266 16.6493145 309.68646519 2.28369141 309.68530273 C-0.75241881 309.68750175 -3.78817174 309.70577169 -6.82421875 309.72460938 C-17.33314921 309.75463642 -27.2534562 309.26475484 -37.625 307.5 C-40.7453687 307.14895106 -43.87146331 306.89166938 -47 306.625 C-81.9756607 303.32681931 -118.96833999 295.32175563 -149.625 277.5 C-150.22277252 277.18061462 -150.82054504 276.86122925 -151.43643188 276.53216553 C-153.43967913 275.32907053 -155.02582289 274.20734752 -156.625 272.5 C-157.22910122 269.35062989 -157.34156795 267.29008771 -157.125 264.171875 C-157.095271 263.31567566 -157.06554199 262.45947632 -157.03491211 261.57733154 C-156.964841 259.63682627 -156.87910017 257.69684663 -156.78076172 255.75756836 C-156.61171639 252.22218939 -156.50568829 248.68850427 -156.41015625 245.15039062 C-156.20615447 237.71542779 -155.9574654 230.28262772 -155.69787598 222.84942627 C-155.57473813 219.30204564 -155.45552806 215.75453293 -155.3359375 212.20703125 C-155.10269232 205.30455731 -154.86526577 198.40223305 -154.625 191.5 C-155.2313176 191.30002411 -155.83763519 191.10004822 -156.46232605 190.89401245 C-157.2639064 190.62847565 -158.06548676 190.36293884 -158.89135742 190.08935547 C-160.07927132 189.69657913 -160.07927132 189.69657913 -161.29118347 189.29586792 C-164.5575558 188.18198389 -167.73756167 186.91896413 -170.9375 185.625 C-171.58066162 185.36525391 -172.22382324 185.10550781 -172.88647461 184.83789062 C-181.29601987 181.43286252 -189.65882335 177.92191233 -197.99609375 174.34375 C-198.63703979 174.06885742 -199.27798584 173.79396484 -199.93835449 173.51074219 C-201.50064444 172.84066911 -203.06283286 172.17035934 -204.625 171.5 C-204.62277939 172.34968857 -204.62055878 173.19937714 -204.61827087 174.07481384 C-204.59826986 182.06536725 -204.58302684 190.0559123 -204.57318783 198.04648495 C-204.56795954 202.15494285 -204.56086287 206.26338014 -204.54956055 210.37182617 C-204.53872975 214.33346828 -204.53272276 218.29509052 -204.53012276 222.25674629 C-204.52826886 223.77148311 -204.5246489 225.28621879 -204.51926994 226.80094719 C-204.51205693 228.91541813 -204.51100917 231.02980594 -204.51147461 233.14428711 C-204.509254 234.35007919 -204.50703339 235.55587128 -204.50474548 236.79820251 C-204.625 239.5 -204.625 239.5 -205.625 240.5 C-207.28929051 240.59823937 -208.95781931 240.62973631 -210.625 240.625 C-211.5325 240.62757813 -212.44 240.63015625 -213.375 240.6328125 C-215.625 240.5 -215.625 240.5 -216.625 239.5 C-216.71943335 237.19946165 -216.74242128 234.89597827 -216.73852539 232.59350586 C-216.73867142 231.87159561 -216.73881744 231.14968536 -216.7389679 230.40589905 C-216.73826869 228.00885053 -216.73047595 225.61187877 -216.72265625 223.21484375 C-216.7207921 221.55717511 -216.71936818 219.89950593 -216.71836853 218.24183655 C-216.71454312 213.87045786 -216.70471265 209.49911219 -216.69366455 205.12774658 C-216.68345092 200.67045539 -216.67887101 196.21315889 -216.67382812 191.75585938 C-216.6630904 183.00389107 -216.64601371 174.25194964 -216.625 165.5 C-217.56146362 165.35449707 -218.49792725 165.20899414 -219.46276855 165.05908203 C-222.58071767 164.50782911 -225.01596846 163.64462185 -227.90625 162.375 C-232.92218117 160.22000735 -237.95928916 158.14322126 -243.03125 156.125 C-243.76947998 155.83044922 -244.50770996 155.53589844 -245.26831055 155.23242188 C-247.55354564 154.32078905 -249.83920993 153.41024033 -252.125 152.5 C-280.09532961 141.36174096 -280.09532961 141.36174096 -288.3125 137.5 C-289.30636719 137.04625 -290.30023438 136.5925 -291.32421875 136.125 C-293.625 134.5 -293.625 134.5 -294.45703125 131.8125 C-294.51246094 131.049375 -294.56789063 130.28625 -294.625 129.5 C-289.76475019 126.30612155 -285.029921 123.69861193 -279.625 121.5 C-276.83543663 120.24006734 -274.05434762 118.96249368 -271.2734375 117.68359375 C-269.60227895 116.93674856 -267.9170249 116.22002281 -266.21484375 115.546875 C-263.01949598 114.25524121 -259.92754092 112.78733519 -256.8125 111.3125 C-247.03619315 106.71667553 -237.1845865 102.25622763 -227.125 98.3125 C-223.61836156 96.93655081 -220.30300014 95.3608127 -216.95703125 93.63671875 C-211.61841758 91.03447993 -206.09364441 88.81199736 -200.625 86.5 C-194.6176502 83.9336833 -188.61984663 81.34537849 -182.625 78.75 C-181.68527344 78.34523438 -180.74554688 77.94046875 -179.77734375 77.5234375 C-174.25072399 75.128321 -168.77079958 72.6492614 -163.3203125 70.0859375 C-156.42252479 66.84426458 -149.46346871 63.7622016 -142.47140503 60.73013306 C-129.58096931 55.13867035 -116.7387107 49.44518428 -103.92724609 43.67529297 C-98.51168266 41.23700611 -93.09265716 38.81980368 -87.625 36.5 C-72.48471383 30.0177328 -72.48471383 30.0177328 -57.5 23.1875 C-50.69047476 19.97806122 -43.84762175 16.84446861 -36.98712158 13.74575806 C-35.72917049 13.17662225 -34.47209052 12.60555603 -33.21600342 12.03231812 C-25.34519619 8.44259274 -17.45764249 5.25830817 -9.27758789 2.46728516 C-2.89831367 0.14103716 -2.89831367 0.14103716 0 0 Z " fill="#080809" transform="translate(522.625,192.5)"/>
<path d="M0 0 C8.51095766 6.23880154 13.78156053 14.01367034 19 23 C19.89477051 24.53333984 19.89477051 24.53333984 20.80761719 26.09765625 C27.71999339 37.98221113 34.55860203 49.9077444 40.90576172 62.10595703 C43.55047467 67.18822857 46.32045592 72.1918567 49.125 77.1875 C52.64188125 83.46053053 55.93063741 89.79069793 59.09228516 96.25073242 C61.16283701 100.3881723 63.43148668 104.40688138 65.71484375 108.4296875 C66.12859253 109.16179443 66.54234131 109.89390137 66.96862793 110.64819336 C67.97757935 112.43298106 68.98857619 114.21661222 70 116 C69.99308655 115.17615688 69.99308655 115.17615688 69.98603344 114.33567047 C69.87542104 100.94725441 69.79309871 87.55891884 69.74093914 74.17014313 C69.71486541 67.69528657 69.67950664 61.22076026 69.62280273 54.74609375 C69.56840565 48.49558779 69.53856273 42.24539912 69.52561378 35.99467468 C69.51638789 33.6120657 69.49837175 31.22947373 69.47134972 28.84700012 C69.43495876 25.50504266 69.43005909 22.16438991 69.43237305 18.82226562 C69.40540848 17.35058929 69.40540848 17.35058929 69.37789917 15.84918213 C69.43474723 8.24228653 71.76201514 3.63025175 76.7734375 -1.98828125 C85.189778 -8.94715791 92.13244509 -10.00333235 103 -9 C114.18660343 -6.91136202 123.68325308 -2.84273505 130.8515625 6.2265625 C137.49421471 16.48426353 135.14719024 33.09170081 135.1328125 44.80078125 C135.13348861 46.76051343 135.13446117 48.72024552 135.13571167 50.67997742 C135.13718358 54.79618118 135.13505664 58.91236322 135.13037109 63.02856445 C135.12477455 68.18487591 135.12799388 73.34113466 135.13380241 78.49744415 C135.19581842 143.0529817 135.19581842 143.0529817 132.80761719 173.05712891 C132.61827007 175.46041966 132.44937531 177.86467058 132.28125 180.26953125 C130.09483967 209.90516033 130.09483967 209.90516033 119.6875 220.3125 C115.9676644 222.64821072 112.04358803 224.30788949 108 226 C107.34 226.33 106.68 226.66 106 227 C92.39773789 227.776756 79.70833377 226.1890736 69 217 C69 216.34 69 215.68 69 215 C68.01 214.67 67.02 214.34 66 214 C64.22957777 212.03818077 62.60727312 210.08928504 61 208 C60.27586914 207.06546997 60.27586914 207.06546997 59.53710938 206.11206055 C46.01071592 188.36853762 35.48125519 168.49919336 24.59033203 149.09130859 C22.05383334 144.58099932 19.47773148 140.10596848 16.796875 135.6796875 C14.72362591 132.24706399 12.80415088 128.80314605 11.0625 125.1875 C8.31340274 119.56534089 5.35205356 114.09007072 2.3203125 108.6171875 C1 106 1 106 1 104 C0.34 104 -0.32 104 -1 104 C-0.97494385 104.66730133 -0.9498877 105.33460266 -0.92407227 106.02212524 C1.19691365 162.80959938 1.19691365 162.80959938 1.25 186.1875 C1.25499512 186.95161194 1.25999023 187.71572388 1.26513672 188.50299072 C1.33370815 201.06219032 0.92215961 211.88555818 -8.25 221.3125 C-15.391317 225.69467179 -22.68821834 226.55692104 -30.9375 226.5 C-32.39663818 226.49033203 -32.39663818 226.49033203 -33.88525391 226.48046875 C-43.6999975 226.22927477 -49.31670692 223.67468321 -56.5 217.0625 C-64.20774218 208.7344164 -63.15029703 196.78617283 -63.14526367 186.02905273 C-63.14862228 184.9779834 -63.1519809 183.92691406 -63.15544128 182.84399414 C-63.16491527 179.37384844 -63.1668956 175.90375159 -63.16796875 172.43359375 C-63.17119418 169.96126793 -63.17455914 167.48894228 -63.17805481 165.01661682 C-63.18404472 159.80737877 -63.18589589 154.59815726 -63.18530273 149.38891602 C-63.18522293 144.17208273 -63.1919241 138.95533999 -63.20581055 133.73852539 C-63.28021319 105.32042088 -63.07975757 76.9370613 -62.11328125 48.53515625 C-62.07433432 47.33546141 -62.03538738 46.13576656 -61.99526024 44.89971733 C-60.70530845 6.18816336 -60.70530845 6.18816336 -51.3125 -2.8125 C-36.7631598 -14.50536424 -14.38372487 -9.73205826 0 0 Z " fill="#ED9527" transform="translate(479,589)"/>
<path d="M0 0 C1.47339844 0.69416016 1.47339844 0.69416016 2.9765625 1.40234375 C14.50704611 7.26502626 25.20856926 15.59163483 30.16015625 27.87890625 C32.66771648 37.19769984 31.65377068 46.59979757 27 55 C26.61070312 55.71929688 26.22140625 56.43859375 25.8203125 57.1796875 C21.79636373 63.48942965 16.03311946 66.74579504 9 69 C-0.02515113 70.38465343 -7.52609907 69.32792937 -15 64 C-17.62584844 61.81580802 -20.13741254 59.55086204 -22.62890625 57.21484375 C-30.92279388 49.46750555 -38.63098288 45.29038852 -50.21875 45.6484375 C-56.10367006 46.39231785 -61.02116724 48.39808777 -65.625 52.125 C-67.62252848 56.30165045 -68.13673237 60.48131231 -67 65 C-63.70172724 69.0163469 -59.92443581 71.4856215 -55.3125 73.75 C-54.63678955 74.08580078 -53.9610791 74.42160156 -53.26489258 74.76757812 C-45.68239577 78.38042952 -37.74923242 80.96627443 -29.79931641 83.63916016 C-11.30700346 89.87846923 7.1982651 96.93038302 22 110 C22.62390625 110.51820313 23.2478125 111.03640625 23.890625 111.5703125 C34.48180347 121.06420671 40.39135965 135.97240079 41.23828125 149.92578125 C41.76700375 170.4966114 36.53518315 188.08835547 22.5625 203.5625 C3.87601576 223.16107031 -23.34945817 230.40691656 -49.66821289 231.40625 C-76.50433759 231.79734916 -106.82780159 224.53265834 -127 206 C-136.09896697 196.13480423 -140.94285754 185.64465357 -140.44140625 172.10546875 C-139.17704168 163.2101605 -133.92012636 156.47055527 -127 151 C-119.78142424 145.97961529 -111.50196738 145.98851192 -103 147 C-95.44517297 149.09680694 -90.55638553 154.14563648 -85 159.42578125 C-75.68278523 167.4206309 -64.99706248 172.40988495 -52.625 172.3125 C-51.50291138 172.30404053 -51.50291138 172.30404053 -50.3581543 172.29541016 C-43.11310296 172.13624753 -37.17734268 171.16151842 -31.5 166.375 C-28.7264483 163.26056485 -27.94745211 160.29922749 -27.78125 156.171875 C-28.15823207 152.42898154 -29.41934628 150.70354199 -32 148 C-34.17289313 146.57972907 -36.36780767 145.34777038 -38.68359375 144.17578125 C-41 143 -41 143 -43.25512695 141.56616211 C-46.19637232 139.88795442 -49.02191213 138.83197489 -52.234375 137.765625 C-53.4404541 137.35989258 -54.6465332 136.95416016 -55.88916016 136.53613281 C-56.52009583 136.32621704 -57.15103149 136.11630127 -57.80108643 135.90002441 C-114.06053862 117.13571494 -114.06053862 117.13571494 -127.3125 91.1875 C-135.18860532 74.92187562 -136.41563746 58.14879091 -130.73193359 40.97900391 C-126.85676457 30.50131206 -121.03663743 21.76733212 -113 14 C-112.34128906 13.35546875 -111.68257812 12.7109375 -111.00390625 12.046875 C-106.13545121 7.54086028 -100.79643108 4.19069601 -95 1 C-94.21882813 0.5565625 -93.43765625 0.113125 -92.6328125 -0.34375 C-85.74117909 -4.04941518 -78.58036716 -6.14967416 -71 -8 C-70.09121094 -8.22816406 -69.18242187 -8.45632813 -68.24609375 -8.69140625 C-45.595124 -13.40623692 -20.77133639 -9.84294919 0 0 Z " fill="#EF8E27" transform="translate(354,587)"/>
<path d="M0 0 C1.93664709 -0.00611329 1.93664709 -0.00611329 3.91241837 -0.01235008 C10.03985172 -0.0309757 16.16726577 -0.04556923 22.29472148 -0.05396205 C29.30712606 -0.06373394 36.31921501 -0.09008908 43.33150852 -0.13046294 C49.45787793 -0.16449724 55.58411649 -0.17612526 61.7105751 -0.18016624 C64.29308345 -0.18500463 66.87558909 -0.19653895 69.45803452 -0.21520424 C106.76896979 -0.46825945 106.76896979 -0.46825945 117.9453125 10.23828125 C124.75252641 18.20811338 125.42590576 27.59465704 125.26171875 37.73046875 C124.54882427 45.63391619 121.85530619 52.85362033 115.9453125 58.23828125 C108.29732791 62.55681536 101.33798379 63.3883983 92.70703125 63.3359375 C91.82626419 63.33452255 90.94549713 63.3331076 90.03804016 63.33164978 C87.23626247 63.32607062 84.43456588 63.31352196 81.6328125 63.30078125 C79.72851678 63.29576356 77.82421981 63.29120112 75.91992188 63.28710938 C71.26168769 63.27610802 66.60351383 63.25885774 61.9453125 63.23828125 C62.18846758 64.30568354 62.18846758 64.30568354 62.43653488 65.39464951 C62.94615737 68.24300334 63.07667053 70.84533225 63.08575439 73.73638916 C63.09146454 74.8293631 63.09717468 75.92233704 63.10305786 77.0484314 C63.10473465 78.83285141 63.10473465 78.83285141 63.10644531 80.65332031 C63.11141022 81.91421478 63.11637512 83.17510925 63.12149048 84.47421265 C63.13458182 87.92949277 63.14105453 91.38475347 63.14550114 94.84005451 C63.14844073 97.00628478 63.15254745 99.17250985 63.15700531 101.33873749 C63.17067954 108.13736198 63.18034322 114.93597447 63.1842072 121.73461175 C63.18867013 129.54167818 63.20613559 137.34856797 63.2352078 145.15558076 C63.25697048 151.21365016 63.26691939 157.27167044 63.26824832 163.32977843 C63.26928717 166.93586646 63.27499373 170.54178848 63.29306793 174.14783478 C63.49699271 217.29850613 63.49699271 217.29850613 54.12109375 227.15625 C45.04940257 235.53676471 36.15818526 236.80535735 24.1953125 236.5859375 C18.62059343 236.29220781 14.48528189 234.42685897 9.9453125 231.23828125 C9.36523438 230.86574219 8.78515625 230.49320313 8.1875 230.109375 C2.30757551 225.86932895 -0.80798137 219.2855471 -2.3046875 212.36328125 C-3.73153678 203.23347249 -4.20303928 194.16474395 -4.18408203 184.93383789 C-4.18583435 183.86220398 -4.18758667 182.79057007 -4.18939209 181.6864624 C-4.19376168 178.17377052 -4.19088802 174.66112982 -4.1875 171.1484375 C-4.18817489 168.67858368 -4.18914645 166.20872993 -4.19039917 163.73887634 C-4.19186991 158.56866827 -4.1897433 153.39847753 -4.18505859 148.22827148 C-4.17938871 141.65586227 -4.18262686 135.08349414 -4.18863106 128.51108646 C-4.19227665 123.40874431 -4.19107943 118.3064116 -4.18850327 113.20406914 C-4.1878436 110.78398064 -4.18862819 108.36389123 -4.19098282 105.94380379 C-4.20181251 91.6751586 -3.93825863 77.48115819 -3.0546875 63.23828125 C-4.13936813 63.31769958 -5.22404877 63.39711792 -6.34159851 63.47894287 C-15.42769189 64.13566369 -24.50841023 64.40083287 -33.6171875 64.48828125 C-35.27500244 64.52018555 -35.27500244 64.52018555 -36.96630859 64.55273438 C-44.26688265 64.58375821 -50.06016273 64.05708666 -56.19140625 59.73046875 C-65.00662842 50.53776855 -67.39854066 42.1025349 -67.26953125 29.48828125 C-66.72632476 21.27104849 -63.31409951 12.97562525 -57.046875 7.4765625 C-41.74948733 -3.53009448 -17.84644768 0.04782358 0 0 Z " fill="#38B65C" transform="translate(693.0546875,580.76171875)"/>
<path d="M0 0 C0.90921265 1.41433079 1.81262348 2.83288232 2.6796875 4.2734375 C6.88675912 9.7749927 13.44091802 12.51117072 20 14 C22.81933884 14.28223993 25.60539793 14.33467034 28.4375 14.3125 C29.1888623 14.30686035 29.94022461 14.3012207 30.71435547 14.29541016 C39.64715548 14.09897802 45.72148338 11.51608211 52 5 C52.66 4.01 53.32 3.02 54 2 C66.06489232 -0.59077688 80.68013484 5.32988747 92 9 C93.76950685 9.52532235 95.54025362 10.04649534 97.3125 10.5625 C100.8797961 11.62753543 104.34417536 12.84183638 107.8125 14.19140625 C110.47379228 15.17513393 113.17089481 16.01617067 115.875 16.875 C120.54310547 18.42327438 124.8357655 20.2468675 129.1875 22.52734375 C131.34254948 23.6557516 133.5033102 24.74706333 135.6875 25.81640625 C143.57939573 29.68683128 151.2791204 33.77082536 158.87890625 38.1875 C161.52624871 39.72488035 164.18944094 41.21847624 166.875 42.6875 C169.79776764 44.31065051 172.69601355 45.96660761 175.5625 47.6875 C176.22378906 48.08324219 176.88507813 48.47898437 177.56640625 48.88671875 C178.03949219 49.25410156 178.51257813 49.62148438 179 50 C179 50.66 179 51.32 179 52 C179.66 52.33 180.32 52.66 181 53 C179.16471755 54.83528245 176.10052257 54.48608501 173.625 54.75 C167.39808297 55.50659817 161.38260422 56.73600827 155.3125 58.3125 C154.56629395 58.50102539 153.82008789 58.68955078 153.05126953 58.88378906 C142.03884602 61.84178002 131.74340516 66.95715392 121.4375 71.75 C120.30779785 72.27440674 119.1780957 72.79881348 118.01416016 73.33911133 C115.73817869 74.39684156 113.46277553 75.45581716 111.18798828 76.51611328 C108.34579641 77.83904498 105.49975553 79.15320009 102.65234375 80.46484375 C94.20827211 84.38075136 85.9939483 88.50663263 77.98388672 93.25854492 C73.30479258 96 73.30479258 96 70 96 C70 96.66 70 97.32 70 98 C69.46375 98.25652344 68.9275 98.51304687 68.375 98.77734375 C62.94087661 101.43184153 57.6396 104.27774922 52.375 107.25 C51.69961182 107.63019287 51.02422363 108.01038574 50.32836914 108.40209961 C46.75426739 110.42067718 43.19830264 112.46589361 39.66015625 114.546875 C38.95262207 114.95776367 38.24508789 115.36865234 37.51611328 115.79199219 C36.16908783 116.57483009 34.82721533 117.36663024 33.49169922 118.16894531 C29.33066965 120.57367501 25.92101602 122.11876534 21 122 C17.13277968 120.54111998 13.60013659 118.58128754 10 116.5625 C8.97616211 116.00844482 7.95232422 115.45438965 6.89746094 114.88354492 C3.92275141 113.27134605 0.96064259 111.63784667 -2 110 C-4.57812562 108.59436698 -7.16186529 107.19960724 -9.75 105.8125 C-10.32903076 105.50127197 -10.90806152 105.19004395 -11.50463867 104.86938477 C-23.26518475 98.60929517 -35.46237565 93.17405471 -47.65161133 87.81079102 C-51.96490141 85.91294338 -56.24084569 83.95499415 -60.5 81.9375 C-72.83054965 76.23940749 -85.62076987 71.71760834 -98.4375 67.25 C-99.51475342 66.87319092 -100.59200684 66.49638184 -101.7019043 66.1081543 C-114.9159537 61.46886465 -114.9159537 61.46886465 -128.6875 59.3125 C-129.70199219 59.24675781 -130.71648437 59.18101562 -131.76171875 59.11328125 C-132.50035156 59.07589844 -133.23898437 59.03851563 -134 59 C-134 58.01 -134 57.02 -134 56 C-133.34 56 -132.68 56 -132 56 C-131.79375 55.4225 -131.5875 54.845 -131.375 54.25 C-129.4725335 51.136873 -127.13705107 49.79260061 -124 48 C-123.01 48 -122.02 48 -121 48 C-121 47.34 -121 46.68 -121 46 C-120.51273437 45.731875 -120.02546875 45.46375 -119.5234375 45.1875 C-115.94676936 43.21057797 -112.3811302 41.22149946 -108.84765625 39.16796875 C-102.47892794 35.46929149 -96.06219552 31.90788825 -89.5 28.5625 C-88.84185303 28.22049561 -88.18370605 27.87849121 -87.50561523 27.52612305 C-83.67545342 25.60346105 -80.26200952 24.46697944 -76 24 C-76 23.34 -76 22.68 -76 22 C-73.56495491 20.9936345 -71.12729136 19.99473587 -68.6875 19 C-67.99720703 18.71382813 -67.30691406 18.42765625 -66.59570312 18.1328125 C-63.58454326 16.91089256 -61.28113016 16 -58 16 C-58 15.34 -58 14.68 -58 14 C-57.02417969 13.73058594 -56.04835938 13.46117187 -55.04296875 13.18359375 C-51.52065894 12.17759871 -48.06022487 11.02866894 -44.5949707 9.84277344 C-32.82460476 5.819018 -21.41536476 2.87050264 -9.0546875 1.4296875 C-5.48335491 0.92732614 -3.74207858 0 0 0 Z " fill="#1C1C1D" transform="translate(500,323)"/>
<path d="M0 0 C4.45870573 2.57614109 7.14432212 5.03373108 8.671875 10.09375 C9.50577794 18.84289559 9.50577794 18.84289559 6.671875 23.09375 C6.5552334 25.03304465 6.5552334 25.03304465 6.890625 27.203125 C7.00019531 28.09193359 7.10976563 28.98074219 7.22265625 29.89648438 C7.37089844 30.95158203 7.51914062 32.00667969 7.671875 33.09375 C7.85105469 34.37056641 8.03023438 35.64738281 8.21484375 36.96289062 C8.96100733 42.18938304 9.73235737 47.41217364 10.51513672 52.63330078 C11.85242868 61.57991829 12.96821529 70.41916987 13.44335938 79.45996094 C13.50704011 82.07093602 13.50704011 82.07093602 14.671875 84.09375 C14.74382369 86.97745333 14.76479208 89.83614664 14.734375 92.71875 C14.72986328 93.52054688 14.72535156 94.32234375 14.72070312 95.1484375 C14.70890668 97.13024006 14.69097105 99.11200433 14.671875 101.09375 C6.95423019 103.00573988 -0.39801535 103.39894798 -8.328125 103.34375 C-9.43929688 103.35148438 -10.55046875 103.35921875 -11.6953125 103.3671875 C-29.09562942 103.32624558 -29.09562942 103.32624558 -32.328125 100.09375 C-32.45420447 96.90757971 -32.22807725 93.71489328 -32.078125 90.53125 C-32.03220215 89.55269043 -31.9862793 88.57413086 -31.93896484 87.56591797 C-31.10320704 72.02673964 -28.9883105 56.64168754 -25.953125 41.38671875 C-25.17613623 37.29295917 -24.72932906 33.23952524 -24.328125 29.09375 C-24.121875 27.959375 -23.915625 26.825 -23.703125 25.65625 C-23.08112971 23.11106328 -23.08112971 23.11106328 -24.328125 21.09375 C-24.88525632 15.13673055 -24.84992686 10.14166601 -21.328125 5.09375 C-15.4309151 -0.83568509 -8.03971103 -3.12955194 0 0 Z " fill="#F8C529" transform="translate(319.328125,433.90625)"/>
<path d="M0 0 C4.45870573 2.57614109 7.14432212 5.03373108 8.671875 10.09375 C9.50577794 18.84289559 9.50577794 18.84289559 6.671875 23.09375 C6.43080174 25.38023848 6.43080174 25.38023848 6.546875 27.78125 C6.56492187 28.58949219 6.58296875 29.39773438 6.6015625 30.23046875 C6.62476563 30.84535156 6.64796875 31.46023438 6.671875 32.09375 C5.681875 31.59875 5.681875 31.59875 4.671875 31.09375 C4.671875 29.44375 4.671875 27.79375 4.671875 26.09375 C3.5375 26.75375 2.403125 27.41375 1.234375 28.09375 C-3.98027408 30.68264822 -8.8667645 31.20723913 -14.453125 29.41015625 C-16.11106506 28.71154844 -17.72582289 27.91194682 -19.328125 27.09375 C-19.988125 28.41375 -20.648125 29.73375 -21.328125 31.09375 C-21.988125 31.09375 -22.648125 31.09375 -23.328125 31.09375 C-23.26625 32.3725 -23.204375 33.65125 -23.140625 34.96875 C-23.140625 39.80218147 -23.79331728 44.41143257 -24.640625 49.15625 C-29.34437879 73.97713807 -29.34437879 73.97713807 -29.328125 99.09375 C-28.668125 99.75375 -28.008125 100.41375 -27.328125 101.09375 C-28.978125 100.76375 -30.628125 100.43375 -32.328125 100.09375 C-31.76266962 80.28331319 -29.82212101 60.8324539 -25.953125 41.38671875 C-25.17613623 37.29295917 -24.72932906 33.23952524 -24.328125 29.09375 C-24.121875 27.959375 -23.915625 26.825 -23.703125 25.65625 C-23.08112971 23.11106328 -23.08112971 23.11106328 -24.328125 21.09375 C-24.88525632 15.13673055 -24.84992686 10.14166601 -21.328125 5.09375 C-15.4309151 -0.83568509 -8.03971103 -3.12955194 0 0 Z " fill="#F8CA31" transform="translate(319.328125,433.90625)"/>
<path d="M0 0 C4.29 1.32 8.58 2.64 13 4 C12.89209173 12.97928653 12.7800553 21.95849509 12.66066074 30.93763638 C12.60539364 35.10659016 12.55196774 39.27555091 12.50268555 43.44458008 C12.45509765 47.46463894 12.40275714 51.48460989 12.34705925 55.50456429 C12.32661034 57.04160447 12.30790153 58.57866879 12.29092598 60.11575127 C12.2669378 62.26142006 12.23687617 64.40692129 12.20532227 66.55249023 C12.18977798 67.77604721 12.1742337 68.99960419 12.15821838 70.26023865 C12 73 12 73 11 74 C9.33570949 74.09823937 7.66718069 74.12973631 6 74.125 C4.63875 74.12886719 4.63875 74.12886719 3.25 74.1328125 C1 74 1 74 0 73 C-0.09439978 70.73008113 -0.11742226 68.45718033 -0.11352539 66.18530273 C-0.11367142 65.47314606 -0.11381744 64.76098938 -0.1139679 64.0272522 C-0.1132687 61.66266888 -0.10547606 59.29816339 -0.09765625 56.93359375 C-0.09579209 55.29834537 -0.09436818 53.66309643 -0.09336853 52.02784729 C-0.08954318 47.71565215 -0.07971275 43.40349048 -0.06866455 39.09130859 C-0.0584508 34.69434054 -0.05387099 30.29736711 -0.04882812 25.90039062 C-0.03809049 17.26690998 -0.02049356 8.63346301 0 0 Z " fill="#1A3062" transform="translate(306,359)"/>
<path d="M0 0 C1.98 0.99 1.98 0.99 4 2 C3.34 2 2.68 2 2 2 C2 25.1 2 48.2 2 72 C4.64 72 7.28 72 10 72 C10 49.89 10 27.78 10 5 C10.33 5 10.66 5 11 5 C11 27.77 11 50.54 11 74 C7.7 74 4.4 74 1 74 C0 73 0 73 -0.12025452 70.10838318 C-0.11803391 68.81376663 -0.11581329 67.51915009 -0.11352539 66.18530273 C-0.11367142 65.47314606 -0.11381744 64.76098938 -0.1139679 64.0272522 C-0.1132687 61.66266888 -0.10547606 59.29816339 -0.09765625 56.93359375 C-0.09579209 55.29834537 -0.09436818 53.66309643 -0.09336853 52.02784729 C-0.08954318 47.71565215 -0.07971275 43.40349048 -0.06866455 39.09130859 C-0.0584508 34.69434054 -0.05387099 30.29736711 -0.04882812 25.90039062 C-0.03809049 17.26691169 -0.02101387 8.63346 0 0 Z " fill="#233358" transform="translate(306,359)"/>
<path d="M0 0 C0 0.66 0 1.32 0 2 C-4.14202082 4.00825252 -7.43961691 4.08594362 -12 4 C-11.99555878 5.10595016 -11.99111755 6.21190033 -11.98654175 7.35136414 C-11.94567725 17.86685288 -11.9158648 28.38232513 -11.89637566 38.89787579 C-11.88601873 44.30166162 -11.87201091 49.70538243 -11.84912109 55.10913086 C-11.82709967 60.34170466 -11.81537089 65.57421664 -11.81024551 70.80683327 C-11.80660153 72.78511335 -11.79948929 74.76339076 -11.78853989 76.74164391 C-11.73420284 86.98317693 -11.93801703 97.12051349 -12.88720703 107.32348633 C-12.96491774 108.16425311 -13.04262844 109.00501989 -13.12269402 109.87126446 C-14.24840107 120.77944999 -16.49572661 133.86773736 -23 143 C-25.12890625 144.22265625 -25.12890625 144.22265625 -27 145 C-26.608125 144.2575 -26.21625 143.515 -25.8125 142.75 C-24.23978438 139.58959051 -22.82599416 136.370297 -21.4375 133.125 C-21.02371094 132.15820312 -20.60992188 131.19140625 -20.18359375 130.1953125 C-15.16522867 116.64738301 -14.92239978 101.8788038 -14.4765625 87.59375 C-14.43495499 86.30064911 -14.39334747 85.00754822 -14.35047913 83.67526245 C-13.87174378 68.25965884 -13.66879368 52.83908958 -13.46777344 37.41784668 C-13.41623207 33.51421146 -13.3612609 29.61062439 -13.30664062 25.70703125 C-13.20120769 18.13806231 -13.09934884 10.56905152 -13 3 C-11.2092015 2.49689942 -9.41733089 1.99761372 -7.625 1.5 C-6.62726562 1.2215625 -5.62953125 0.943125 -4.6015625 0.65625 C-2 0 -2 0 0 0 Z " fill="#2B6AB0" transform="translate(811,682)"/>
<path d="M0 0 C1.125 1.75 1.125 1.75 2 4 C1.69280029 4.52730713 1.38560059 5.05461426 1.0690918 5.59790039 C-0.53438536 9.2006891 -0.26467609 12.81073273 -0.23046875 16.68359375 C-0.23001053 17.534944 -0.22955231 18.38629425 -0.2290802 19.26344299 C-0.22606068 21.06813955 -0.21818332 22.87283357 -0.20581055 24.67749023 C-0.18777254 27.39641922 -0.18529963 30.1150023 -0.18554688 32.83398438 C-0.18062223 34.59635703 -0.17478983 36.35872742 -0.16796875 38.12109375 C-0.16685593 38.91639999 -0.1657431 39.71170624 -0.16459656 40.53111267 C-0.12706376 45.16068076 0.11528556 49.73293013 0.49780273 54.34741211 C1.0135717 60.67964371 1.17714744 66.96904476 1.203125 73.3203125 C1.20882507 74.42680145 1.21452515 75.53329041 1.22039795 76.67330933 C1.22975479 78.98401965 1.23634426 81.29474276 1.24023438 83.60546875 C1.25007289 87.1512688 1.28123481 90.69651965 1.3125 94.2421875 C1.31901915 96.49739243 1.32427387 98.75260144 1.328125 101.0078125 C1.3404718 102.06710968 1.3528186 103.12640686 1.36553955 104.21780396 C1.36253845 105.19667572 1.35953735 106.17554749 1.35644531 107.18408203 C1.36009094 108.04421906 1.36373657 108.90435608 1.36749268 109.79055786 C0.91976021 112.48241824 -0.03986982 113.19264501 -2 115 C-2.04671915 100.59649621 -2.08185547 86.19300416 -2.10362434 71.78944016 C-2.11407115 65.10162388 -2.12799786 58.41386005 -2.15087891 51.72607422 C-2.17257516 45.27461496 -2.18456187 38.82320465 -2.18975449 32.37171173 C-2.19345602 29.9076892 -2.20068397 27.44366941 -2.21146011 24.97966766 C-2.22593211 21.5342373 -2.22797972 18.08901045 -2.22705078 14.64355469 C-2.23783661 13.10822838 -2.23783661 13.10822838 -2.24884033 11.54188538 C-2.246091 10.60241562 -2.24334167 9.66294586 -2.24050903 8.69500732 C-2.24235262 7.88014233 -2.24419621 7.06527733 -2.24609566 6.22571945 C-1.97389001 3.76385801 -1.23050922 2.13198797 0 0 Z " fill="#E19F4E" transform="translate(551,593)"/>
<path d="M0 0 C0.91377681 3.08399675 1 5.79865843 1 9 C1.33 9.33 1.66 9.66 2 10 C2.25996373 11.45001991 2.45919978 12.91122093 2.625 14.375 C2.72039062 15.16648437 2.81578125 15.95796875 2.9140625 16.7734375 C3 19 3 19 2 22 C1.34 22 0.68 22 0 22 C0.061875 23.27875 0.12375 24.5575 0.1875 25.875 C0.1875 30.70843147 -0.46519228 35.31768257 -1.3125 40.0625 C-6.01625379 64.88338807 -6.01625379 64.88338807 -6 90 C-5.34 90.66 -4.68 91.32 -4 92 C-5.65 91.67 -7.3 91.34 -9 91 C-8.43454462 71.18956319 -6.49399601 51.7387039 -2.625 32.29296875 C-1.84801123 28.19920917 -1.40120406 24.14577524 -1 20 C-0.79375 18.865625 -0.5875 17.73125 -0.375 16.5625 C0.24699529 14.01731328 0.24699529 14.01731328 -1 12 C-1.0955931 10.33555539 -1.12984645 8.66718037 -1.125 7 C-1.12757813 6.113125 -1.13015625 5.22625 -1.1328125 4.3125 C-1 2 -1 2 0 0 Z " fill="#EEC855" transform="translate(296,443)"/>
<path d="M0 0 C0.33 0 0.66 0 1 0 C1.347356 18.81066361 1.08509984 37.48242066 -0.3125 56.25 C-0.3714444 57.08063965 -0.43038879 57.9112793 -0.49111938 58.76708984 C-2.5489693 87.23489539 -2.5489693 87.23489539 -8 95 C-8.33 95 -8.66 95 -9 95 C-9 93.35 -9 91.7 -9 90 C-8.01 89.505 -8.01 89.505 -7 89 C-5.20885059 83.1655942 -4.47809836 77.4423347 -4 71.375 C-3.91951416 70.39442627 -3.83902832 69.41385254 -3.75610352 68.40356445 C-2.7150776 54.66061147 -2.2382989 40.87874133 -1.69726562 27.10888672 C-1.6580751 26.1311882 -1.61888458 25.15348969 -1.57850647 24.14616394 C-1.50547965 22.3130232 -1.43483281 20.47978525 -1.36717224 18.6464386 C-1.11871406 12.40794463 -0.61509739 6.2126923 0 0 Z " fill="#DE9F4D" transform="translate(612,708)"/>
<path d="M0 0 C1.15071903 2.87679758 0.97347683 4.08667091 0.04711914 7.11376953 C-1.20778143 11.29803853 -1.33102344 15.2716292 -1.37890625 19.6171875 C-1.39590073 20.43261017 -1.4128952 21.24803284 -1.43040466 22.08816528 C-1.48313828 24.68369889 -1.52352951 27.27922651 -1.5625 29.875 C-1.62161833 33.26832746 -1.68620347 36.66152099 -1.75390625 40.0546875 C-1.76982819 40.88208435 -1.78575012 41.7094812 -1.80215454 42.56195068 C-1.97835536 50.72235723 -2.45006537 58.85727041 -3 67 C-3.66 67 -4.32 67 -5 67 C-5.47435737 12.52917776 -5.47435737 12.52917776 0 0 Z " fill="#DFA559" transform="translate(422,593)"/>
<path d="M0 0 C0.33 0 0.66 0 1 0 C1.05016334 5.13711186 1.08607287 10.27407514 1.10986328 15.41137695 C1.11980124 17.15196217 1.13335628 18.89253125 1.15087891 20.63305664 C1.29767955 35.61103953 1.11008157 50.04047056 -5 64 C-5.33257813 64.78632812 -5.66515625 65.57265625 -6.0078125 66.3828125 C-7.80229505 70.3250222 -9.01326921 72.33055648 -13 74 C-12.608125 73.2575 -12.21625 72.515 -11.8125 71.75 C-10.23978438 68.58959051 -8.82599416 65.370297 -7.4375 62.125 C-7.02371094 61.15820312 -6.60992188 60.19140625 -6.18359375 59.1953125 C0.67046237 40.69162304 -0.47388436 19.47549137 0 0 Z " fill="#4D7CB4" transform="translate(797,753)"/>
<path d="M0 0 C0.66 0 1.32 0 2 0 C5 5.75 5 5.75 5 8 C4.34 8 3.68 8 3 8 C2.67 25.16 2.34 42.32 2 60 C1.67 60 1.34 60 1 60 C0.10910033 39.98319038 -0.12750914 20.03266614 0 0 Z " fill="#F9E7C5" transform="translate(478,693)"/>
<path d="M0 0 C3.84080401 7.23351421 4.39718479 15.48182181 5.30273438 23.50292969 C5.64583482 26.48559698 6.04706667 29.1412 7 32 C7.22635971 35.10017698 7.18515463 38.20489136 7.1875 41.3125 C7.19974609 42.15490234 7.21199219 42.99730469 7.22460938 43.86523438 C7.23571953 48.60186487 7.04203239 52.62421631 5 57 C4.01 57.66 3.02 58.32 2 59 C2.2165625 58.21238281 2.433125 57.42476562 2.65625 56.61328125 C6.25221034 42.5457512 5.03775815 31.61370247 1.77929688 17.66479492 C0.39178494 11.60727755 -0.25793277 6.21617969 0 0 Z " fill="#356EAF" transform="translate(826,465)"/>
<path d="M0 0 C0 0.33 0 0.66 0 1 C-1.25554688 0.97679687 -2.51109375 0.95359375 -3.8046875 0.9296875 C-16.70519763 0.15942258 -16.70519763 0.15942258 -29 3 C-30.16666667 4.91666667 -30.16666667 4.91666667 -31 7 C-32.9375 9.25 -32.9375 9.25 -35 11 C-35.99 11 -36.98 11 -38 11 C-35.50213299 5.35847597 -31.09904858 2.28513179 -25.9375 -0.875 C-17.95656015 -3.92653583 -7.94331313 -2.5418602 0 0 Z " fill="#DEA557" transform="translate(590,582)"/>
<path d="M0 0 C0.66 0.33 1.32 0.66 2 1 C-0.58943961 6.17887923 -4.63186589 10.26250946 -9 14 C-9.66 14 -10.32 14 -11 14 C-11.2578125 14.84949219 -11.515625 15.69898438 -11.78125 16.57421875 C-13.07097206 20.19949517 -14.67397078 23.42738227 -16.5 26.8125 C-17.1084375 27.95332031 -17.716875 29.09414063 -18.34375 30.26953125 C-20 33 -20 33 -22 34 C-17.83265995 19.8773476 -10.33314555 10.26301108 0 0 Z " fill="#DC9A52" transform="translate(245,597)"/>
<path d="M0 0 C0.54785156 0.3609375 1.09570312 0.721875 1.66015625 1.09375 C-1.33984375 2.09375 -1.33984375 2.09375 -3.21484375 1.31640625 C-3.91609375 0.93355469 -4.61734375 0.55070313 -5.33984375 0.15625 C-11.30855306 -2.62914768 -17.12141642 -3.05811714 -23.5 -1.31640625 C-28.77968804 0.96131205 -32.40755769 4.897282 -36.26171875 9.0703125 C-38.227652 10.98451066 -39.82963821 12.04217741 -42.33984375 13.09375 C-39.93162932 6.13534147 -34.75433214 1.0407836 -28.27734375 -2.40625 C-18.81410889 -6.05729044 -8.63492718 -5.05459152 0 0 Z " fill="#E0994B" transform="translate(259.33984375,737.90625)"/>
<path d="M0 0 C7.22462684 0.15108535 12.3768912 1.35308506 18.6953125 4.85546875 C21.84762029 6.42093686 24.51198175 6.77252055 28 7 C28 7.66 28 8.32 28 9 C29.65 9 31.3 9 33 9 C33 9.66 33 10.32 33 11 C34.32 11 35.64 11 37 11 C37 11.66 37 12.32 37 13 C37.99 13 38.98 13 40 13 C40 13.66 40 14.32 40 15 C33.60451289 12.90492664 27.2639526 10.67937796 20.9296875 8.40625 C16.50022243 6.81794104 12.06285404 5.25218764 7.625 3.6875 C6.86896484 3.42090576 6.11292969 3.15431152 5.33398438 2.87963867 C3.55606553 2.25287697 1.77804439 1.62640547 0 1 C0 0.67 0 0.34 0 0 Z " fill="#E5A359" transform="translate(273,714)"/>
<path d="M0 0 C0.33 0 0.66 0 1 0 C1.05001046 4.08931682 1.08600357 8.17851141 1.10986328 12.26806641 C1.11982603 13.65481676 1.13340118 15.04154665 1.15087891 16.42822266 C1.41417051 37.87874424 1.41417051 37.87874424 -4 46 C-7 48.25 -7 48.25 -10 50 C-10.99 50.66 -11.98 51.32 -13 52 C-15.1875 51.625 -15.1875 51.625 -17 51 C-11 48 -11 48 -8.75 47.0625 C-6.43801357 45.65879396 -6.01520021 44.50416051 -5 42 C-4.484375 40.88625 -3.96875 39.7725 -3.4375 38.625 C-1.25988366 33.13361967 -0.86545822 27.94193666 -0.68359375 22.0703125 C-0.64169922 20.78125 -0.59980469 19.4921875 -0.55664062 18.1640625 C-0.51683972 16.81771091 -0.47712727 15.47135671 -0.4375 14.125 C-0.39424817 12.75519667 -0.35063188 11.38540479 -0.30664062 10.015625 C-0.20084478 6.67717843 -0.09875628 3.338661 0 0 Z " fill="#FAE5C4" transform="translate(480,762)"/>
<path d="M0 0 C0.75 1.625 0.75 1.625 1 4 C-0.75 6.9375 -0.75 6.9375 -3 10 C-3.53625 10.94875 -4.0725 11.8975 -4.625 12.875 C-5.07875 13.57625 -5.5325 14.2775 -6 15 C-6.66 15 -7.32 15 -8 15 C-8.226875 15.61875 -8.45375 16.2375 -8.6875 16.875 C-10.38862958 19.6292098 -12.05376154 19.82150461 -15 21 C-15.4640625 22.0209375 -15.4640625 22.0209375 -15.9375 23.0625 C-16.288125 23.701875 -16.63875 24.34125 -17 25 C-20.125 25.75 -20.125 25.75 -23 26 C-20.51934513 23.41598451 -17.91533765 21.06468942 -15.1875 18.75 C-8.87102144 13.245136 -3.87406726 7.43820914 0 0 Z " fill="#4979BA" transform="translate(850,649)"/>
<path d="M0 0 C-4.81696379 2.22978499 -9.63677887 4.45324696 -14.45922852 6.67114258 C-16.09607594 7.42498572 -17.73216019 8.18048843 -19.36743164 8.93774414 C-21.73119873 10.03198725 -24.09773461 11.12004006 -26.46484375 12.20703125 C-27.18397446 12.54152786 -27.90310516 12.87602448 -28.64402771 13.22065735 C-33.65916112 15.51389271 -38.73877678 17.3513304 -44 19 C-44 18.34 -44 17.68 -44 17 C-41.09399739 15.74335022 -39.20395416 15 -36 15 C-36 14.34 -36 13.68 -36 13 C-34.02 12.67 -32.04 12.34 -30 12 C-30 11.34 -30 10.68 -30 10 C-29.39671875 9.80664062 -28.7934375 9.61328125 -28.171875 9.4140625 C-27.37265625 9.15367187 -26.5734375 8.89328125 -25.75 8.625 C-24.96109375 8.36976563 -24.1721875 8.11453125 -23.359375 7.8515625 C-20.99751144 7.05887299 -20.99751144 7.05887299 -18.890625 5.8984375 C-17 5 -17 5 -14 5 C-14 4.34 -14 3.68 -14 3 C-12.35 3 -10.7 3 -9 3 C-9 2.34 -9 1.68 -9 1 C-3.375 -1.125 -3.375 -1.125 0 0 Z " fill="#3F74B6" transform="translate(409,198)"/>
<path d="M0 0 C1.125 1.75 1.125 1.75 2 4 C1.69462311 4.60048157 1.38924622 5.20096313 1.07461548 5.81964111 C-0.20811709 8.42226263 -0.27588221 10.24273566 -0.31884766 13.13574219 C-0.33871735 14.15649841 -0.35858704 15.17725464 -0.37905884 16.22894287 C-0.39061005 17.32386047 -0.40216125 18.41877808 -0.4140625 19.546875 C-0.43342865 20.6732135 -0.4527948 21.799552 -0.4727478 22.96002197 C-0.53251521 26.55660434 -0.57891819 30.15321876 -0.625 33.75 C-0.66318234 36.18881602 -0.70223422 38.6276186 -0.7421875 41.06640625 C-0.83821449 47.04415144 -0.92327048 53.02197766 -1 59 C-1.33 59 -1.66 59 -2 59 C-2.05066736 51.24042546 -2.08571984 43.48089352 -2.10986328 35.72119141 C-2.11992719 33.08087571 -2.13357952 30.44057117 -2.15087891 27.80029297 C-2.17510971 24.00745897 -2.18647923 20.21477221 -2.1953125 16.421875 C-2.20563507 15.23946228 -2.21595764 14.05704956 -2.22659302 12.83880615 C-2.22674408 11.73796692 -2.22689514 10.63712769 -2.22705078 9.50292969 C-2.231492 8.53474304 -2.23593323 7.5665564 -2.24050903 6.56903076 C-1.9915915 3.91018338 -1.35558554 2.27725613 0 0 Z " fill="#E2A95F" transform="translate(551,593)"/>
<path d="M0 0 C0 0.33 0 0.66 0 1 C-0.53625 0.9278125 -1.0725 0.855625 -1.625 0.78125 C-7.14157447 0.12797144 -12.63458606 -0.13594091 -18.1875 -0.1875 C-19.50105469 -0.20167969 -20.81460937 -0.21585938 -22.16796875 -0.23046875 C-26.05524525 0.0033226 -29.28952786 0.86853504 -33 2 C-35.4375 1.625 -35.4375 1.625 -37 1 C-24.9680716 -5.28941712 -12.77585885 -3.56535596 0 0 Z " fill="#DFAA60" transform="translate(468,583)"/>
<path d="M0 0 C0 0.66 0 1.32 0 2 C-0.99 2 -1.98 2 -3 2 C-3.33 2.99 -3.66 3.98 -4 5 C-5.671875 6.6484375 -5.671875 6.6484375 -7.75 8.375 C-8.46800781 8.98859375 -9.18601563 9.6021875 -9.92578125 10.234375 C-10.61027344 10.81703125 -11.29476562 11.3996875 -12 12 C-15.77611776 15.3744031 -17.21859595 17.05110771 -18 22 C-19.5625 23.8125 -19.5625 23.8125 -21 25 C-21 17.40455648 -17.17528297 12.90695803 -12.0625 7.6875 C-4.25431711 0 -4.25431711 0 0 0 Z " fill="#DCEDFA" transform="translate(217,284)"/>
<path d="M0 0 C0.33 0 0.66 0 1 0 C1 17.82 1 35.64 1 54 C-1.83328987 51.16671013 -2.7191375 49.64553172 -4 46 C-3.01 46.33 -2.02 46.66 -1 47 C-0.67 31.49 -0.34 15.98 0 0 Z " fill="#FDF0D2" transform="translate(549,652)"/>
<path d="M0 0 C0.66 0 1.32 0 2 0 C4.00278219 7.43656009 4.46353847 14.64645548 4.68798828 22.33154297 C4.75052665 24.39235459 4.83353777 26.45170044 4.91796875 28.51171875 C4.96050781 29.81496094 5.00304687 31.11820313 5.046875 32.4609375 C5.08651367 33.64478027 5.12615234 34.82862305 5.16699219 36.04833984 C5 39 5 39 3 42 C2.34 42 1.68 42 1 42 C1.165 40.700625 1.33 39.40125 1.5 38.0625 C2.7547554 25.1876185 2.0760253 12.73419093 0 0 Z " fill="#3E73AF" transform="translate(855,592)"/>
<path d="M0 0 C1.125 3.703125 1.125 3.703125 0 6.375 C-2.56577622 9.74258129 -5.45628436 12.65631534 -9 15 C-9.99 15 -10.98 15 -12 15 C-12 15.99 -12 16.98 -12 18 C-13.65 17.67 -15.3 17.34 -17 17 C-14.55532429 14.35160132 -11.99407622 12.25456603 -9.0625 10.1875 C-5.06171236 7.26355988 -2.66177404 4.15902194 0 0 Z " fill="#3972B8" transform="translate(825,529)"/>
<path d="M0 0 C3.75557488 1.25185829 3.91616765 2.18384431 5.6875 5.625 C7.48362072 9.08570736 9.2851667 12.53126007 11.203125 15.92578125 C11.57348877 16.59077637 11.94385254 17.25577148 12.32543945 17.94091797 C13.05781749 19.25582194 13.79836403 20.5662145 14.54760742 21.87158203 C17.09122859 26.50919126 17.09122859 26.50919126 16.59008789 29.20532227 C16.39535889 29.79756592 16.20062988 30.38980957 16 31 C13.87905289 27.0689244 11.76121647 23.13619418 9.64624023 19.2019043 C8.92638947 17.86388027 8.20569233 16.52631124 7.48413086 15.18920898 C6.44682256 13.26665478 5.4125741 11.34248216 4.37890625 9.41796875 C3.7557251 8.26063232 3.13254395 7.1032959 2.49047852 5.91088867 C1 3 1 3 0 0 Z " fill="#E1A04A" transform="translate(480,694)"/>
<path d="M0 0 C0.93700966 3.03089332 1.00789964 3.97249512 0.08837891 7.17407227 C-1.17961057 11.63137667 -1.34895669 15.61029637 -1.4140625 20.21484375 C-1.43342865 21.07058487 -1.4527948 21.92632599 -1.4727478 22.80799866 C-1.53210914 25.51773383 -1.57875366 28.2275125 -1.625 30.9375 C-1.66321985 32.78452284 -1.70227387 34.63152861 -1.7421875 36.47851562 C-1.83777448 40.98553709 -1.92196424 45.49264188 -2 50 C-2.33 50 -2.66 50 -3 50 C-3.07460523 44.32579364 -3.12881608 38.65187792 -3.16479492 32.97729492 C-3.17980652 31.05016094 -3.20022216 29.12306068 -3.22631836 27.19604492 C-3.26303943 24.41316361 -3.27980292 21.63073712 -3.29296875 18.84765625 C-3.30845261 17.99728287 -3.32393646 17.14690948 -3.33988953 16.27076721 C-3.34152545 10.34941316 -2.18779934 5.4954679 0 0 Z " fill="#E49635" transform="translate(422,593)"/>
<path d="M0 0 C1.06120729 3.56094003 0.74034086 6.33317344 0.2578125 10.0078125 C-0.31406438 16.64505018 -0.06877983 23.34364115 0 30 C-3.70565939 26.29434061 -3.17650105 20.70380357 -3.25 15.6875 C-3.22312036 9.8277375 -2.1994702 5.40703092 0 0 Z " fill="#68B885" transform="translate(629,598)"/>
<path d="M0 0 C6.88322438 1.47135263 12.88118587 4.29583593 19.0625 7.5625 C19.8248999 7.96267334 20.5872998 8.36284668 21.37280273 8.77514648 C26.87003121 11.74006242 26.87003121 11.74006242 28 14 C21.45762712 12.36440678 21.45762712 12.36440678 19.3125 10.65625 C15.90262598 8.21404293 12.13293352 6.8547265 8.25 5.3125 C7.06083984 4.83200195 7.06083984 4.83200195 5.84765625 4.34179688 C3.90055928 3.55592039 1.95055951 2.7772426 0 2 C0 1.34 0 0.68 0 0 Z " fill="#DD9946" transform="translate(339,677)"/>
<path d="M0 0 C2.12508244 3.18762365 2.5020163 5.26512223 3 9 C2.46632812 9.23074219 1.93265625 9.46148438 1.3828125 9.69921875 C-3.81998866 11.97656943 -8.89364273 14.4283089 -13.93359375 17.046875 C-16 18 -16 18 -18 18 C-18 17.34 -18 16.68 -18 16 C-12.40087258 13.44669421 -6.78378035 11.10319285 -1 9 C-0.67 6.03 -0.34 3.06 0 0 Z " fill="#3F75B6" transform="translate(252,536)"/>
<path d="M0 0 C2.93200474 2.85276137 5.64315404 5.65079784 8 9 C7.01 9 6.02 9 5 9 C3.3125 7 3.3125 7 2 5 C-0.46800047 6.15173355 -2.04783565 7.04783565 -4 9 C-4.99 9 -5.98 9 -7 9 C-7 9.66 -7 10.32 -7 11 C-7.66 10.67 -8.32 10.34 -9 10 C-7.8758824 8.70756532 -6.75067408 7.41607925 -5.625 6.125 C-4.99851562 5.40570312 -4.37203125 4.68640625 -3.7265625 3.9453125 C-2.52573166 2.5923402 -1.2791655 1.2791655 0 0 Z " fill="#4676A9" transform="translate(511,825)"/>
<path d="M0 0 C0.33 0 0.66 0 1 0 C1.25216065 7.18657855 1.25216065 7.18657855 0.03125 11.125 C-1.39291509 15.82651395 -1.45631807 20.55626676 -1.625 25.4375 C-1.66367188 26.35982422 -1.70234375 27.28214844 -1.7421875 28.23242188 C-1.83568676 30.48809143 -1.9214391 32.74376916 -2 35 C-2.33 35 -2.66 35 -3 35 C-3.61916858 11.41761516 -3.61916858 11.41761516 0 0 Z " fill="#B7D2EA" transform="translate(177,739)"/>
<path d="M0 0 C0.33 0 0.66 0 1 0 C1 10.89 1 21.78 1 33 C0.67 33 0.34 33 0 33 C-1.25288587 27.33855009 -1.43002974 21.71513261 -1.6875 15.9375 C-1.74744141 14.84888672 -1.80738281 13.76027344 -1.86914062 12.63867188 C-1.91619141 11.59130859 -1.96324219 10.54394531 -2.01171875 9.46484375 C-2.05772217 8.512146 -2.10372559 7.55944824 -2.15112305 6.57788086 C-1.99206079 3.86457165 -1.3903635 2.30753463 0 0 Z " fill="#3571AF" transform="translate(174,747)"/>
<path d="M0 0 C-8.51109657 5.67406438 -22.22227611 2.69917718 -32 2 C-32 1.67 -32 1.34 -32 1 C-30.9941687 0.96241577 -30.9941687 0.96241577 -29.96801758 0.92407227 C-26.9160041 0.80769199 -23.86426742 0.68515652 -20.8125 0.5625 C-19.75740234 0.52318359 -18.70230469 0.48386719 -17.61523438 0.44335938 C-16.08286133 0.38051758 -16.08286133 0.38051758 -14.51953125 0.31640625 C-13.58214111 0.27974854 -12.64475098 0.24309082 -11.67895508 0.20532227 C-8.98100994 0.05382695 -8.98100994 0.05382695 -6.29956055 -0.54711914 C-3.82381461 -1.03469836 -2.36888564 -0.78962855 0 0 Z " fill="#FDEFB2" transform="translate(333,536)"/>
<path d="M0 0 C-3.09048933 3.09048933 -6.97920432 4.42243897 -10.9375 6.1875 C-11.76185547 6.56841797 -12.58621094 6.94933594 -13.43554688 7.34179688 C-14.22896484 7.69693359 -15.02238281 8.05207031 -15.83984375 8.41796875 C-16.56550537 8.74563232 -17.29116699 9.0732959 -18.03881836 9.41088867 C-20 10 -20 10 -23 9 C-23 8.34 -23 7.68 -23 7 C-22.05640625 6.74476563 -22.05640625 6.74476563 -21.09375 6.484375 C-16.73147137 5.24927201 -12.69040326 3.96319946 -8.6875 1.8125 C-5.65686936 0.19575384 -3.49967133 -0.43745892 0 0 Z " fill="#3F72B5" transform="translate(318,238)"/>
<path d="M0 0 C-3.69122815 2.46081877 -6.48759328 2.26139209 -10.75 2.1875 C-11.4409375 2.18685547 -12.131875 2.18621094 -12.84375 2.18554688 C-17.3170774 2.14770858 -21.58580487 1.72221779 -26 1 C-26 0.67 -26 0.34 -26 0 C-22.41713181 -0.19720979 -18.83369943 -0.38107522 -15.25 -0.5625 C-14.23421875 -0.61857422 -13.2184375 -0.67464844 -12.171875 -0.73242188 C-11.1921875 -0.78076172 -10.2125 -0.82910156 -9.203125 -0.87890625 C-8.30239258 -0.9260376 -7.40166016 -0.97316895 -6.47363281 -1.02172852 C-4.12542592 -1.00110175 -2.23793298 -0.67823071 0 0 Z " fill="#FBE8C9" transform="translate(463,815)"/>
<path d="M0 0 C2.91517292 1.07401108 4.77810176 1.77810176 7 4 C8.33412724 4.5702098 9.69165167 5.08730575 11.0625 5.5625 C14.90277778 6.90277778 14.90277778 6.90277778 16 8 C18.18292774 8.23481693 20.37203174 8.41363323 22.5625 8.5625 C23.76003906 8.64628906 24.95757812 8.73007812 26.19140625 8.81640625 C27.11824219 8.87699219 28.04507812 8.93757812 29 9 C29 9.33 29 9.66 29 10 C18.95398079 10.65139894 11.20564485 10.2065501 3.27734375 3.5546875 C1.875 2.1875 1.875 2.1875 0 0 Z " fill="#E09F51" transform="translate(334,646)"/>
<path d="M0 0 C-3.18384176 1.46641488 -6.37268146 2.92163754 -9.5625 4.375 C-10.45775391 4.7875 -11.35300781 5.2 -12.27539062 5.625 C-17.13308439 7.83142501 -21.82106681 9.70704274 -27 11 C-26.67 10.01 -26.34 9.02 -26 8 C-24.37736803 7.49292751 -22.74830097 7.0004797 -21.09765625 6.59375 C-16.04012408 5.16219527 -11.28262389 2.70181307 -6.6875 0.1875 C-3.69240968 -1.135912 -2.9870227 -0.93623099 0 0 Z " fill="#3D72B7" transform="translate(356,222)"/>
<path d="M0 0 C0 4.46377067 -1.59455406 7.47234137 -4.6171875 10.7578125 C-8.04143076 13.91752195 -8.04143076 13.91752195 -10 15 C-12.22265625 14.66015625 -12.22265625 14.66015625 -14 14 C-13.32453125 13.40832031 -12.6490625 12.81664062 -11.953125 12.20703125 C-11.06109375 11.41683594 -10.1690625 10.62664063 -9.25 9.8125 C-8.36828125 9.03519531 -7.4865625 8.25789062 -6.578125 7.45703125 C-4.12113732 5.11544754 -2.05137234 2.69841735 0 0 Z " fill="#4577B3" transform="translate(783,828)"/>
<path d="M0 0 C0.66 0.33 1.32 0.66 2 1 C-0.63482263 6.26964527 -4.79943911 9.97903554 -9 14 C-9.33 13.34 -9.66 12.68 -10 12 C-7.75812902 7.09590723 -3.84780996 3.65805495 0 0 Z " fill="#E29743" transform="translate(245,597)"/>
<path d="M0 0 C0.99 0.495 0.99 0.495 2 1 C2.6328125 3.94140625 2.6328125 3.94140625 3.125 7.5625 C3.29257812 8.76003906 3.46015625 9.95757813 3.6328125 11.19140625 C3.75398438 12.11824219 3.87515625 13.04507813 4 14 C4.66 14 5.32 14 6 14 C6.33 15.65 6.66 17.3 7 19 C2.75695453 16.09686362 1.04944314 14.05640786 0 9 C-0.14281693 5.99099503 -0.12037233 3.00930823 0 0 Z " fill="#E2A150" transform="translate(417,787)"/>
<path d="M0 0 C3.90595414 7.31956111 4.30680444 14.83559285 4 23 C0.10266867 15.84397566 -0.25779971 7.99179101 0 0 Z " fill="#366EAF" transform="translate(826,465)"/>
<path d="M0 0 C-6.16396888 3.25643639 -12.41416719 5.72401366 -19 8 C-19 7.34 -19 6.68 -19 6 C-18.34 6 -17.68 6 -17 6 C-17 5.34 -17 4.68 -17 4 C-13.535 3.505 -13.535 3.505 -10 3 C-9.67 2.01 -9.34 1.02 -9 0 C-5.5657338 -0.85856655 -3.38317487 -0.97591583 0 0 Z " fill="#4178B8" transform="translate(456,177)"/>
<path d="M0 0 C0 0.66 0 1.32 0 2 C-0.99 2 -1.98 2 -3 2 C-3.268125 2.58265625 -3.53625 3.1653125 -3.8125 3.765625 C-5.01480991 6.02786601 -6.33825913 7.80576318 -8 9.75 C-8.515625 10.36359375 -9.03125 10.9771875 -9.5625 11.609375 C-11 13 -11 13 -13 13 C-11.73189061 7.08215617 -8.7151965 4.41406916 -4 1 C-2 0 -2 0 0 0 Z " fill="#59B37B" transform="translate(643,585)"/>
<path d="M0 0 C5.13373162 1.39038565 10.03739743 3.08460953 15 5 C15 5.66 15 6.32 15 7 C16.32 7 17.64 7 19 7 C19.33 7.99 19.66 8.98 20 10 C12.755702 7.86233829 6.53281715 4.77315981 0 1 C0 0.67 0 0.34 0 0 Z " fill="#E3A051" transform="translate(253,704)"/>
<path d="M0 0 C3 1 3 1 4.17578125 2.7109375 C5.16982287 5.47164075 5.23092716 7.69564034 5.1875 10.625 C5.18105469 11.58664062 5.17460937 12.54828125 5.16796875 13.5390625 C5 16 5 16 4 18 C3.34 18 2.68 18 2 18 C2.02320313 17.20335937 2.04640625 16.40671875 2.0703125 15.5859375 C2.23848592 7.605026 2.23848592 7.605026 0 0 Z " fill="#FDF6D4" transform="translate(325,438)"/>
<path d="M0 0 C0.33 0 0.66 0 1 0 C1.06058594 0.77085937 1.12117187 1.54171875 1.18359375 2.3359375 C1.26738281 3.33882813 1.35117187 4.34171875 1.4375 5.375 C1.55931641 6.87160156 1.55931641 6.87160156 1.68359375 8.3984375 C1.84965626 10.97927613 1.84965626 10.97927613 3 13 C3.07092842 15.2072923 3.08415025 17.41667452 3.0625 19.625 C3.05347656 20.81351562 3.04445313 22.00203125 3.03515625 23.2265625 C3.02355469 24.14179688 3.01195312 25.05703125 3 26 C2.67 26 2.34 26 2 26 C1.4635805 22.79407291 0.94869517 19.58503778 0.4375 16.375 C0.21030273 15.01955078 0.21030273 15.01955078 -0.02148438 13.63671875 C-0.77750153 8.81930712 -1.20733572 4.81335168 0 0 Z " fill="#4C7FBE" transform="translate(814,388)"/>
<path d="M0 0 C0.33 0.99 0.66 1.98 1 3 C-6.87746171 9.86214442 -6.87746171 9.86214442 -11.5625 10.4375 C-12.366875 10.293125 -13.17125 10.14875 -14 10 C-9.57557408 6.28919117 -4.82596069 3.15422267 0 0 Z " fill="#4679BA" transform="translate(627,838)"/>
<path d="M0 0 C-5.29967528 4.5145382 -10.98356328 4.18183325 -17.625 4.1875 C-18.388125 4.19974609 -19.15125 4.21199219 -19.9375 4.22460938 C-23.82006322 4.23482665 -25.69678923 4.20214051 -29 2 C-27.02966797 2.03480469 -27.02966797 2.03480469 -25.01953125 2.0703125 C-23.28385987 2.08907651 -21.54818232 2.10727604 -19.8125 2.125 C-18.94818359 2.14175781 -18.08386719 2.15851562 -17.19335938 2.17578125 C-11.08337483 2.22260105 -5.92573924 -0.33861367 0 0 Z " fill="#66B57D" transform="translate(739,813)"/>
<path d="M0 0 C0.99 0 1.98 0 3 0 C5.24828052 4.49656104 5.16682272 8.07872966 5 13 C4.34 13 3.68 13 3 13 C2.34 14.32 1.68 15.64 1 17 C0.34 16.67 -0.32 16.34 -1 16 C-0.505 15.29875 -0.01 14.5975 0.5 13.875 C2.24138649 10.53734257 2.38721974 8.71730955 2 5 C1.08742694 2.21433941 1.08742694 2.21433941 0 0 Z " fill="#DE9748" transform="translate(324,736)"/>
<path d="M0 0 C0.33 0 0.66 0 1 0 C1.01981934 0.62567871 1.03963867 1.25135742 1.06005859 1.89599609 C1.15514226 4.72276519 1.26488746 7.54877815 1.375 10.375 C1.4059375 11.35984375 1.436875 12.3446875 1.46875 13.359375 C1.50742187 14.30039062 1.54609375 15.24140625 1.5859375 16.2109375 C1.6173584 17.08024902 1.6487793 17.94956055 1.68115234 18.84521484 C1.81229433 21.20961794 1.81229433 21.20961794 4 23 C2.35 22.67 0.7 22.34 -1 22 C-0.67 14.74 -0.34 7.48 0 0 Z " fill="#EACF6F" transform="translate(288,512)"/>
<path d="M0 0 C0.66 0.33 1.32 0.66 2 1 C-1.7559214 4.42931954 -6.23466745 5.56429083 -11 7 C-11 7.99 -11 8.98 -11 10 C-11.66 10.99 -12.32 11.98 -13 13 C-13.33 10.69 -13.66 8.38 -14 6 C-11.71220962 4.96959833 -9.42048864 3.95047982 -7.125 2.9375 C-6.47402344 2.64294922 -5.82304688 2.34839844 -5.15234375 2.04492188 C-3.45989459 1.30338487 -1.73131425 0.64560999 0 0 Z " fill="#5385BC" transform="translate(823,366)"/>
<path d="M0 0 C1.98 0 3.96 0 6 0 C6 0.66 6 1.32 6 2 C7.65 2 9.3 2 11 2 C11 2.66 11 3.32 11 4 C12.32 4 13.64 4 15 4 C15 4.66 15 5.32 15 6 C15.99 6 16.98 6 18 6 C18 6.66 18 7.32 18 8 C11.79522136 6.06375702 5.89174281 3.74390859 0 1 C0 0.67 0 0.34 0 0 Z " fill="#DEA25A" transform="translate(295,721)"/>
<path d="M0 0 C0.33 0.99 0.66 1.98 1 3 C-0.43359375 5.26171875 -0.43359375 5.26171875 -2.4375 7.6875 C-3.09621094 8.49574219 -3.75492188 9.30398438 -4.43359375 10.13671875 C-5.20896484 11.05904297 -5.20896484 11.05904297 -6 12 C-7.32 11.67 -8.64 11.34 -10 11 C-6.7 7.37 -3.4 3.74 0 0 Z " fill="#467AB6" transform="translate(638,826)"/>
<path d="M0 0 C2.31 0 4.62 0 7 0 C7 0.66 7 1.32 7 2 C9.97 2.495 9.97 2.495 13 3 C13 3.66 13 4.32 13 5 C13.66 5 14.32 5 15 5 C15 5.66 15 6.32 15 7 C9.76727367 5.36041242 4.84803364 3.61047965 0 1 C0 0.67 0 0.34 0 0 Z " fill="#467BB8" transform="translate(579,171)"/>
<path d="M0 0 C0.66 0.33 1.32 0.66 2 1 C1.67 1.66 1.34 2.32 1 3 C0.01 3 -0.98 3 -2 3 C-2.66 4.32 -3.32 5.64 -4 7 C-5.98 7 -7.96 7 -10 7 C-10.33 6.34 -10.66 5.68 -11 5 C-9.93458984 4.58427734 -9.93458984 4.58427734 -8.84765625 4.16015625 C-7.46900391 3.61681641 -7.46900391 3.61681641 -6.0625 3.0625 C-5.14597656 2.70285156 -4.22945312 2.34320312 -3.28515625 1.97265625 C-1.07581467 1.2003782 -1.07581467 1.2003782 0 0 Z " fill="#4B81BE" transform="translate(823,676)"/>
<path d="M0 0 C0.66 0 1.32 0 2 0 C3.50708218 2.05700369 4.85798406 4.08286582 6.1875 6.25 C6.56841797 6.83652344 6.94933594 7.42304687 7.34179688 8.02734375 C10.09556475 12.47535357 10.09556475 12.47535357 9.59887695 15.20214844 C9.40124756 15.79543945 9.20361816 16.38873047 9 17 C7.49743011 14.35559624 5.9978388 11.70958148 4.5 9.0625 C4.07074219 8.30775391 3.64148438 7.55300781 3.19921875 6.77539062 C2.79316406 6.05673828 2.38710938 5.33808594 1.96875 4.59765625 C1.59169922 3.93258057 1.21464844 3.26750488 0.82617188 2.58227539 C0 1 0 1 0 0 Z " fill="#E29F4D" transform="translate(508,745)"/>
<path d="M0 0 C1.23556641 0.01740234 1.23556641 0.01740234 2.49609375 0.03515625 C3.32238281 0.04417969 4.14867187 0.05320312 5 0.0625 C5.63808594 0.07410156 6.27617187 0.08570313 6.93359375 0.09765625 C6.60359375 0.75765625 6.27359375 1.41765625 5.93359375 2.09765625 C0.40930128 3.84216966 -4.29490999 4.30378112 -10.06640625 4.09765625 C-10.06640625 3.76765625 -10.06640625 3.43765625 -10.06640625 3.09765625 C-8.93203125 2.78828125 -7.79765625 2.47890625 -6.62890625 2.16015625 C-3.9174895 1.3514881 -2.58036823 0.12194557 0 0 Z " fill="#CEE1F5" transform="translate(467.06640625,850.90234375)"/>
<path d="M0 0 C0.66 0.33 1.32 0.66 2 1 C-2.75 5 -2.75 5 -5 5 C-5.20625 5.639375 -5.4125 6.27875 -5.625 6.9375 C-7 9 -7 9 -10.125 9.75 C-11.548125 9.87375 -11.548125 9.87375 -13 10 C-9.28249221 5.79759989 -4.68339021 3.00217321 0 0 Z " fill="#4276B8" transform="translate(840,665)"/>
<path d="M0 0 C0.99 0 1.98 0 3 0 C3 1.65 3 3.3 3 5 C3.66 5 4.32 5 5 5 C5.33 6.98 5.66 8.96 6 11 C6.66 11 7.32 11 8 11 C8.33 12.98 8.66 14.96 9 17 C5.21785458 12.7976162 0 5.90556785 0 0 Z " fill="#FDF0D0" transform="translate(514,640)"/>
<path d="M0 0 C0.66 0 1.32 0 2 0 C1.875 1.75 1.875 1.75 1 4 C-1.875 6.125 -1.875 6.125 -5 8 C-5.99 8.66 -6.98 9.32 -8 10 C-10.1875 9.625 -10.1875 9.625 -12 9 C-6 6 -6 6 -3.75 5.0625 C-1.54340952 3.72278435 -0.94418518 2.36046295 0 0 Z " fill="#FAEDCE" transform="translate(475,804)"/>
<path d="M0 0 C-1.44126786 3.36295835 -3.20592655 5.62927102 -6 8 C-6.99 8 -7.98 8 -9 8 C-7.13554727 3.64961029 -5.02378599 0 0 0 Z " fill="#DF9942" transform="translate(561,585)"/>
<path d="M0 0 C5.96564796 0.50771472 10.63809899 2.38592128 16 5 C16 5.66 16 6.32 16 7 C10.3856009 5.43551329 5.13189662 3.83604813 0 1 C0 0.67 0 0.34 0 0 Z " fill="#497BB7" transform="translate(600,180)"/>
<path d="M0 0 C0.99 0.33 1.98 0.66 3 1 C1.75645114 2.29787866 0.5048736 3.58806759 -0.75 4.875 C-1.44609375 5.59429688 -2.1421875 6.31359375 -2.859375 7.0546875 C-4.85122217 8.86479679 -6.5427658 9.94848086 -9 11 C-9 8 -9 8 -7 6 C-6.01 6 -5.02 6 -4 6 C-4 5.34 -4 4.68 -4 4 C-3.34 4 -2.68 4 -2 4 C-1.34 2.68 -0.68 1.36 0 0 Z " fill="#DCEEF9" transform="translate(777,832)"/>
<path d="M0 0 C0.66 0 1.32 0 2 0 C2.41176754 3.60296594 2.1535853 4.78402067 0 7.8125 C-0.66 8.534375 -1.32 9.25625 -2 10 C-2.99 9.67 -3.98 9.34 -5 9 C-3.35 6.03 -1.7 3.06 0 0 Z " fill="#4D7AB7" transform="translate(644,815)"/>
<path d="M0 0 C13.81776765 -0.55353075 13.81776765 -0.55353075 19 3 C14.97985339 4.56454159 11.30074319 3.46223974 7.25 2.5625 C6.55261719 2.41490234 5.85523438 2.26730469 5.13671875 2.11523438 C3.4227979 1.75131967 1.71115419 1.37670932 0 1 C0 0.67 0 0.34 0 0 Z " fill="#FBE6C3" transform="translate(318,577)"/>
<path d="M0 0 C0.66 0.99 1.32 1.98 2 3 C1.45857092 4.30063968 0.89082518 5.5903409 0.3125 6.875 C-0.00074219 7.59429687 -0.31398438 8.31359375 -0.63671875 9.0546875 C-2.40021548 11.57108111 -4.11949509 12.09237822 -7 13 C-6.57847656 12.22914063 -6.15695312 11.45828125 -5.72265625 10.6640625 C-5.17480469 9.66117187 -4.62695312 8.65828125 -4.0625 7.625 C-3.51722656 6.62726563 -2.97195313 5.62953125 -2.41015625 4.6015625 C-1.5850241 3.07929654 -0.77435609 1.54871217 0 0 Z " fill="#4578B7" transform="translate(850,339)"/>
<path d="M0 0 C0.66 0.33 1.32 0.66 2 1 C-3.75929978 6.88183807 -3.75929978 6.88183807 -8.9375 7.375 C-10.4534375 7.189375 -10.4534375 7.189375 -12 7 C-10.54312306 4.08624612 -8.49246097 3.64222221 -5.5625 2.3125 C-4.57378906 1.85488281 -3.58507812 1.39726562 -2.56640625 0.92578125 C-1.29603516 0.46751953 -1.29603516 0.46751953 0 0 Z " fill="#CDE2F4" transform="translate(482,164)"/>
<path d="M0 0 C-0.5625 1.875 -0.5625 1.875 -2 4 C-6.10870902 5.59783129 -8.79911692 6.28617345 -13 5 C-11.21046815 4.16209211 -9.41830305 3.32980604 -7.625 2.5 C-6.62726563 2.0359375 -5.62953125 1.571875 -4.6015625 1.09375 C-2 0 -2 0 0 0 Z " fill="#CCE5F7" transform="translate(349,225)"/>
<path d="M0 0 C1 3 1 3 -0.21484375 5.69921875 C-0.78332031 6.68535156 -1.35179687 7.67148437 -1.9375 8.6875 C-2.50339844 9.68136719 -3.06929687 10.67523437 -3.65234375 11.69921875 C-4.31943359 12.83810547 -4.31943359 12.83810547 -5 14 C-5.87840996 10.90279155 -5.99435406 9.09354597 -5 6 C-4.34 6 -3.68 6 -3 6 C-2.690625 5.195625 -2.38125 4.39125 -2.0625 3.5625 C-1 1 -1 1 0 0 Z " fill="#3D71B4" transform="translate(195,590)"/>
<path d="M0 0 C2.64 0.33 5.28 0.66 8 1 C8.33 1.99 8.66 2.98 9 4 C10.49985609 5.66710346 10.49985609 5.66710346 12 7 C8.38862487 7 7.25267809 6.07469918 4.3125 4.0625 C3.50425781 3.51722656 2.69601562 2.97195313 1.86328125 2.41015625 C1.24839844 1.94480469 0.63351562 1.47945313 0 1 C0 0.67 0 0.34 0 0 Z " fill="#3D77B3" transform="translate(829,279)"/>
<path d="M0 0 C1.51553092 3.97450493 0.49888623 7.20481149 -0.4375 11.25 C-0.72496094 12.51328125 -1.01242187 13.7765625 -1.30859375 15.078125 C-1.53675781 16.04234375 -1.76492188 17.0065625 -2 18 C-2.33 18 -2.66 18 -3 18 C-3.31985731 11.28299653 -2.4793824 6.24273068 0 0 Z " fill="#DEA85B" transform="translate(422,593)"/>
<path d="M0 0 C4.97209562 1.76429199 9.43438061 4.3939166 14 7 C12.328125 7.67578125 12.328125 7.67578125 10 8 C7.421875 6.85546875 7.421875 6.85546875 4.75 5.1875 C3.85796875 4.64480469 2.9659375 4.10210937 2.046875 3.54296875 C1.37140625 3.03378906 0.6959375 2.52460938 0 2 C0 1.34 0 0.68 0 0 Z " fill="#3C73B4" transform="translate(208,360)"/>
<path d="M0 0 C1.32 0 2.64 0 4 0 C4 0.66 4 1.32 4 2 C5.65 2.33 7.3 2.66 9 3 C9 3.66 9 4.32 9 5 C9.99 4.67 10.98 4.34 12 4 C12 4.99 12 5.98 12 7 C7.39104317 5.68315519 3.85859765 3.84801255 0 1 C0 0.67 0 0.34 0 0 Z " fill="#CEE8F5" transform="translate(216,835)"/>
<path d="M0 0 C0.33 0 0.66 0 1 0 C2.61050328 10.15317287 2.61050328 10.15317287 0.0625 13.6875 C-0.618125 14.120625 -1.29875 14.55375 -2 15 C-1.38487182 9.99109914 -0.7282448 4.99367864 0 0 Z " fill="#FAE9C9" transform="translate(609,783)"/>
<path d="M0 0 C0 0.66 0 1.32 0 2 C-4.1205746 3.99785435 -7.45194365 4.17835515 -12 4 C-12.33 4.66 -12.66 5.32 -13 6 C-13 5.01 -13 4.02 -13 3 C-11.2092015 2.49689942 -9.41733089 1.99761372 -7.625 1.5 C-6.62726562 1.2215625 -5.62953125 0.943125 -4.6015625 0.65625 C-2 0 -2 0 0 0 Z " fill="#3F75B1" transform="translate(811,682)"/>
<path d="M0 0 C0.66 0.33 1.32 0.66 2 1 C-1.44615385 6.78461538 -1.44615385 6.78461538 -4.25 7.875 C-4.8275 7.91625 -5.405 7.9575 -6 8 C-4.55746343 4.63408134 -2.66735273 2.48952921 0 0 Z " fill="#DFA354" transform="translate(429,585)"/>
<path d="M0 0 C0.33 0.99 0.66 1.98 1 3 C-0.21484375 5.04296875 -0.21484375 5.04296875 -1.9375 7.1875 C-2.50339844 7.90292969 -3.06929687 8.61835937 -3.65234375 9.35546875 C-4.09707031 9.89816406 -4.54179687 10.44085937 -5 11 C-5.66 10.67 -6.32 10.34 -7 10 C-3.535 5.05 -3.535 5.05 0 0 Z " fill="#D4E9F9" transform="translate(201,584)"/>
<path d="M0 0 C1.32 0.33 2.64 0.66 4 1 C2.1875 3 2.1875 3 0 5 C-0.99 5 -1.98 5 -3 5 C-3 5.66 -3 6.32 -3 7 C-3.66 6.67 -4.32 6.34 -5 6 C-3.35 4.02 -1.7 2.04 0 0 Z " fill="#4B82BE" transform="translate(507,829)"/>
<path d="M0 0 C3.84800954 0.54971565 5.35309439 2.27037858 8 5 C10.13309192 6.23512079 10.13309192 6.23512079 12 7 C12 7.66 12 8.32 12 9 C8.56072421 7.7580393 5.74792181 6.44259716 3 4 C3 3.34 3 2.68 3 2 C2.01 1.67 1.02 1.34 0 1 C0 0.67 0 0.34 0 0 Z " fill="#E5A555" transform="translate(545,802)"/>
<path d="M0 0 C0.66 0 1.32 0 2 0 C0 4 -2 8 -4 12 C-5.08784335 8.68604014 -5.07262544 8.16419665 -3.5625 4.75 C-3.046875 3.8425 -2.53125 2.935 -2 2 C-1.34 2 -0.68 2 0 2 C0 1.34 0 0.68 0 0 Z " fill="#4279BE" transform="translate(185,720)"/>
<path d="M0 0 C0 3.77910478 -0.99703962 4.46106101 -3.5 7.1875 C-4.1496875 7.90292969 -4.799375 8.61835937 -5.46875 9.35546875 C-5.9740625 9.89816406 -6.479375 10.44085937 -7 11 C-7.66 10.67 -8.32 10.34 -9 10 C-6.03 6.7 -3.06 3.4 0 0 Z " fill="#D4E8F8" transform="translate(211,572)"/>
<path d="M0 0 C0.33 0.99 0.66 1.98 1 3 C0.01 3.33 -0.98 3.66 -2 4 C-2 4.99 -2 5.98 -2 7 C-3.65 6.67 -5.3 6.34 -7 6 C-4.74259377 3.66475218 -2.7194239 1.81294927 0 0 Z " fill="#6189B6" transform="translate(815,540)"/>
<path d="M0 0 C0.66 0 1.32 0 2 0 C4.71391278 4.77357872 6.56561146 8.34388537 6 14 C4.43370292 10.98029212 3.12374836 7.91349586 1.875 4.75 C1.52179687 3.85796875 1.16859375 2.9659375 0.8046875 2.046875 C0.53914062 1.37140625 0.27359375 0.6959375 0 0 Z " fill="#3D75B5" transform="translate(847,296)"/>
<path d="M0 0 C3.37705625 0.53725895 6.696686 1.11064623 10 2 C10 2.66 10 3.32 10 4 C10.66 4 11.32 4 12 4 C11.67 4.66 11.34 5.32 11 6 C9.53919067 5.38080922 8.08142545 4.75443308 6.625 4.125 C5.81289063 3.77695313 5.00078125 3.42890625 4.1640625 3.0703125 C2 2 2 2 0 0 Z " fill="#3F75B6" transform="translate(691,219)"/>
<path d="M0 0 C0 0.66 0 1.32 0 2 C-8.261959 6.59225513 -8.261959 6.59225513 -13 6 C-9.40464172 2.97989905 -4.81374718 0 0 0 Z " fill="#CCE1F7" transform="translate(416,195)"/>
<path d="M0 0 C3.875 1.75 3.875 1.75 5 4 C4.278125 3.979375 3.55625 3.95875 2.8125 3.9375 C0.08074862 3.99820559 -2.34256091 4.39258535 -5 5 C-3.35 3.35 -1.7 1.7 0 0 Z " fill="#497AB2" transform="translate(392,831)"/>
<path d="M0 0 C4.38889325 0.66498383 7.9811485 2.18757677 12 4 C9.5332355 4.88336837 8.36140628 5.1312406 5.859375 4.22265625 C5.16328125 3.83980469 4.4671875 3.45695313 3.75 3.0625 C3.04359375 2.68222656 2.3371875 2.30195312 1.609375 1.91015625 C1.07828125 1.60980469 0.5471875 1.30945313 0 1 C0 0.67 0 0.34 0 0 Z " fill="#E3A45B" transform="translate(247,805)"/>
<path d="M0 0 C-0.125 1.75 -0.125 1.75 -1 4 C-4.0625 6.25 -4.0625 6.25 -7 8 C-7.66 7.67 -8.32 7.34 -9 7 C-7.88121617 5.82737096 -6.75476949 4.66204862 -5.625 3.5 C-4.68527344 2.52546875 -4.68527344 2.52546875 -3.7265625 1.53125 C-2 0 -2 0 0 0 Z " fill="#5283BB" transform="translate(845,660)"/>
<path d="M0 0 C0.33 1.32 0.66 2.64 1 4 C0.01 4.33 -0.98 4.66 -2 5 C-1.67 8.3 -1.34 11.6 -1 15 C-1.66 14.67 -2.32 14.34 -3 14 C-3.08153933 12.41753293 -3.13943557 10.83383727 -3.1875 9.25 C-3.22230469 8.36828125 -3.25710938 7.4865625 -3.29296875 6.578125 C-2.94923684 3.55328417 -1.99772541 2.24416398 0 0 Z " fill="#FDF1D9" transform="translate(289,638)"/>
<path d="M0 0 C0.33 0 0.66 0 1 0 C1.10824843 1.6026782 1.18570645 3.20745748 1.25 4.8125 C1.29640625 5.70582031 1.3428125 6.59914063 1.390625 7.51953125 C1 10 1 10 -3 13 C-2.01 8.71 -1.02 4.42 0 0 Z " fill="#5484C1" transform="translate(831,511)"/>
<path d="M0 0 C0.66 0 1.32 0 2 0 C2 0.66 2 1.32 2 2 C2.99 2 3.98 2 5 2 C5 2.99 5 3.98 5 5 C5.99 5 6.98 5 8 5 C8 5.66 8 6.32 8 7 C8.66 7 9.32 7 10 7 C9.67 7.66 9.34 8.32 9 9 C7.68103535 8.07161713 6.37001311 7.13194268 5.0625 6.1875 C4.33160156 5.66542969 3.60070312 5.14335937 2.84765625 4.60546875 C1 3 1 3 0 0 Z " fill="#D1E6F8" transform="translate(203,353)"/>
<path d="M0 0 C0.66 0 1.32 0 2 0 C2.33 2.31 2.66 4.62 3 7 C2.34 7 1.68 7 1 7 C0.01 7.99 -0.98 8.98 -2 10 C-1.34 6.7 -0.68 3.4 0 0 Z " fill="#6B96B7" transform="translate(649,799)"/>
<path d="M0 0 C0.66 0 1.32 0 2 0 C2.66 1.98 3.32 3.96 4 6 C3.01 5.67 2.02 5.34 1 5 C1 6.98 1 8.96 1 11 C0.67 11 0.34 11 0 11 C0 7.37 0 3.74 0 0 Z " fill="#FDECBA" transform="translate(478,693)"/>
<path d="M0 0 C0.66 0 1.32 0 2 0 C6 4.47058824 6 4.47058824 6 7 C6.99 7.33 7.98 7.66 9 8 C8.34 8.66 7.68 9.32 7 10 C5.83043409 8.52312468 4.66441854 7.04343707 3.5 5.5625 C2.8503125 4.73878906 2.200625 3.91507813 1.53125 3.06640625 C0 1 0 1 0 0 Z " fill="#E19951" transform="translate(230,683)"/>
<path d="M0 0 C0.33 0.66 0.66 1.32 1 2 C0.29296875 3.91015625 0.29296875 3.91015625 -0.8125 6.0625 C-1.16957031 6.77535156 -1.52664062 7.48820313 -1.89453125 8.22265625 C-3 10 -3 10 -5 11 C-4.46884894 6.48521602 -2.63379708 3.65333143 0 0 Z " fill="#E1A25A" transform="translate(235,607)"/>
<path d="M0 0 C0 3.01490557 -0.51952735 4.86864114 -1.5 7.6875 C-1.91765625 8.89986328 -1.91765625 8.89986328 -2.34375 10.13671875 C-2.66859375 11.05904297 -2.66859375 11.05904297 -3 12 C-3.33 12 -3.66 12 -4 12 C-3.91253716 10.56138706 -3.80434652 9.12402492 -3.6875 7.6875 C-3.62949219 6.88699219 -3.57148438 6.08648437 -3.51171875 5.26171875 C-2.91793306 2.63727666 -2.04219706 1.69179328 0 0 Z " fill="#457DBA" transform="translate(196,303)"/>
<path d="M0 0 C6.52307692 0.61538462 6.52307692 0.61538462 8.9375 2.5625 C9.288125 3.036875 9.63875 3.51125 10 4 C9.01 4.495 9.01 4.495 8 5 C6.0546875 4.22265625 6.0546875 4.22265625 3.875 3.0625 C3.15054688 2.68222656 2.42609375 2.30195312 1.6796875 1.91015625 C1.12539063 1.60980469 0.57109375 1.30945313 0 1 C0 0.67 0 0.34 0 0 Z " fill="#C8DDF2" transform="translate(535,845)"/>
<path d="M0 0 C1.41687119 4.25061356 0.19320039 6.71851625 -1 11 C-2.125 9.375 -2.125 9.375 -3 7 C-1.63157895 1.63157895 -1.63157895 1.63157895 0 0 Z " fill="#376DB4" transform="translate(648,808)"/>
<path d="M0 0 C3.99500618 1.3697164 6.80009492 3.25722422 10 6 C9.67 6.99 9.34 7.98 9 9 C7.49704815 7.69088122 5.99770689 6.37761608 4.5 5.0625 C3.6646875 4.33160156 2.829375 3.60070312 1.96875 2.84765625 C1.3190625 2.23792969 0.669375 1.62820313 0 1 C0 0.67 0 0.34 0 0 Z " fill="#DC9C51" transform="translate(324,637)"/>
<path d="M0 0 C2.39223697 2.39223697 2.6758631 3.67759676 3 7 C2.01 8.485 2.01 8.485 1 10 C0.34 10 -0.32 10 -1 10 C-0.67 6.7 -0.34 3.4 0 0 Z " fill="#4B7EB8" transform="translate(857,624)"/>
<path d="M0 0 C2.64 0 5.28 0 8 0 C8 0.66 8 1.32 8 2 C8.66 2 9.32 2 10 2 C10 2.66 10 3.32 10 4 C6.7 3.01 3.4 2.02 0 1 C0 0.67 0 0.34 0 0 Z " fill="#4C81B9" transform="translate(703,225)"/>
<path d="M0 0 C-1.26418246 0.69965443 -2.53665402 1.38434763 -3.8125 2.0625 C-4.52019531 2.44535156 -5.22789062 2.82820312 -5.95703125 3.22265625 C-8 4 -8 4 -11 3 C-4.01886792 -1.33962264 -4.01886792 -1.33962264 0 0 Z " fill="#3B71B3" transform="translate(482,165)"/>
<path d="M0 0 C0.66 0 1.32 0 2 0 C2 0.66 2 1.32 2 2 C2.66 2 3.32 2 4 2 C5.06775224 3.96466413 6.06553465 5.96855359 7 8 C6.67 8.66 6.34 9.32 6 10 C4.99723227 8.52270825 3.99785546 7.04311423 3 5.5625 C2.443125 4.73878906 1.88625 3.91507813 1.3125 3.06640625 C0 1 0 1 0 0 Z " fill="#DD9D4A" transform="translate(525,774)"/>
<path d="M0 0 C2.52349243 3.12432397 4.27256146 6.38060496 6 10 C5.34 10 4.68 10 4 10 C1.46093936 7.38626111 0.07743148 5.87110419 -0.25 2.1875 C-0.1675 1.465625 -0.085 0.74375 0 0 Z " fill="#FCF0D1" transform="translate(508,746)"/>
<path d="M0 0 C3 1 3 1 4.75 3.875 C6 7 6 7 5 10 C4.16121545 8.71186658 3.32913217 7.41936744 2.5 6.125 C2.0359375 5.40570312 1.571875 4.68640625 1.09375 3.9453125 C0 2 0 2 0 0 Z " fill="#E1A14A" transform="translate(502,734)"/>
<path d="M0 0 C1.258125 0.12375 2.51625 0.2475 3.8125 0.375 C4.87404297 0.47941406 4.87404297 0.47941406 5.95703125 0.5859375 C8 1 8 1 11 3 C11 3.66 11 4.32 11 5 C9.53932801 4.54917531 8.08151968 4.08906463 6.625 3.625 C5.81289063 3.36976563 5.00078125 3.11453125 4.1640625 2.8515625 C2 2 2 2 0 0 Z " fill="#5681BC" transform="translate(662,207)"/>
<path d="M0 0 C0.66 0.33 1.32 0.66 2 1 C0.68 2.65 -0.64 4.3 -2 6 C-3.32 5.67 -4.64 5.34 -6 5 C-4.02 3.35 -2.04 1.7 0 0 Z " fill="#3771B2" transform="translate(501,836)"/>
<path d="M0 0 C2.31 1.98 4.62 3.96 7 6 C6.34 6.66 5.68 7.32 5 8 C0 2.25 0 2.25 0 0 Z " fill="#4B7ABA" transform="translate(196,819)"/>
<path d="M0 0 C3.03869411 1.51934706 3.64410306 3.98004772 5 7 C5 7.66 5 8.32 5 9 C2 8 2 8 0.8125 6.1875 C0 4 0 4 0 0 Z " fill="#E29D48" transform="translate(531,674)"/>
<path d="M0 0 C1.32 0.33 2.64 0.66 4 1 C1.36 2.98 -1.28 4.96 -4 7 C-4.33 6.34 -4.66 5.68 -5 5 C-3.35 4.34 -1.7 3.68 0 3 C0 2.01 0 1.02 0 0 Z " fill="#E29C4E" transform="translate(374,646)"/>
<path d="M0 0 C0.66 0.33 1.32 0.66 2 1 C-0.12055614 4.1808342 -1.63050557 5.31525278 -5 7 C-5.66 6.67 -6.32 6.34 -7 6 C-4.69 4.02 -2.38 2.04 0 0 Z " fill="#CFE4F8" transform="translate(226,559)"/>
<path d="M0 0 C0.6875 1.8125 0.6875 1.8125 1 4 C-0.3125 5.75 -0.3125 5.75 -2 7 C-2.66 7 -3.32 7 -4 7 C-2.92598892 4.08482708 -2.22189824 2.22189824 0 0 Z " fill="#336DB7" transform="translate(830,522)"/>
<path d="M0 0 C0.33 0.66 0.66 1.32 1 2 C1.66 2 2.32 2 3 2 C2.67 3.65 2.34 5.3 2 7 C1.01 6.34 0.02 5.68 -1 5 C-0.67 3.35 -0.34 1.7 0 0 Z " fill="#2D2D2F" transform="translate(229,321)"/>
<path d="M0 0 C-2.8125 1.5625 -2.8125 1.5625 -6 3 C-6.99 2.67 -7.98 2.34 -9 2 C-9 1.34 -9 0.68 -9 0 C-5.62182575 -0.84454356 -3.32534757 -1.10844919 0 0 Z " fill="#4178C0" transform="translate(304,245)"/>
<path d="M0 0 C1.98 0 3.96 0 6 0 C6 0.66 6 1.32 6 2 C7.65 2 9.3 2 11 2 C11 2.33 11 2.66 11 3 C4.6 3.36923077 4.6 3.36923077 1.5625 1.5 C1.046875 1.005 0.53125 0.51 0 0 Z " fill="#E09745" transform="translate(295,721)"/>
<path d="M0 0 C3.73884332 2.65654657 5.64978174 4.58110387 7 9 C6.01 8.34 5.02 7.68 4 7 C4 6.34 4 5.68 4 5 C3.01 4.67 2.02 4.34 1 4 C0.3125 1.9375 0.3125 1.9375 0 0 Z " fill="#E1A05A" transform="translate(378,700)"/>
<path d="M0 0 C0.99 0.33 1.98 0.66 3 1 C3 1.66 3 2.32 3 3 C3.66 3 4.32 3 5 3 C5 4.65 5 6.3 5 8 C2.27573689 5.64722731 1.1858237 3.37503669 0 0 Z " fill="#FEEFC5" transform="translate(545,698)"/>
<path d="M0 0 C0.53625 0.226875 1.0725 0.45375 1.625 0.6875 C-3.79038462 3.76442308 -3.79038462 3.76442308 -6.75 3.375 C-7.554375 3.0346875 -7.554375 3.0346875 -8.375 2.6875 C-2.95961538 -0.38942308 -2.95961538 -0.38942308 0 0 Z " fill="#C9E2F8" transform="translate(250.375,547.3125)"/>
</svg>
